<svg xmlns="http://www.w3.org/2000/svg" viewBox="0 0 1122.76 183.2"><defs><style>.cls-1{fill:#e0dd02;}</style></defs><g id="Capa_2" data-name="Capa 2"><g id="Capa_1-2" data-name="Capa 1"><path class="cls-1" d="M23.33,2.65A27.54,27.54,0,0,1,37.12,6.1a88.18,88.18,0,0,1,8.75-2.79,47.16,47.16,0,0,1,6.36-1.19,21.07,21.07,0,0,1,4.64,0c1.32.18,2.69.36,4.11.53-.18.18.17.27,1.06.27h9.28L69.73,4.51,81.39,15.64a33.21,33.21,0,0,0-6.23,8.09,54.78,54.78,0,0,0-4.64,11,94.05,94.05,0,0,0-4,27,116.75,116.75,0,0,0,1.33,17.37,57.11,57.11,0,0,0,5,16.57,33,33,0,0,0-7,14.45,76.64,76.64,0,0,0-1.72,16v8a44.17,44.17,0,0,0,10.47-2.65,24.81,24.81,0,0,0,8.62-6,46.38,46.38,0,0,0,7.42-10.6,116.16,116.16,0,0,0,6.89-16.57c.53.71,1,1.37,1.46,2a14.54,14.54,0,0,1,1.19,2l9.81,9.54q3.72,4.52,5.31,12.33a74,74,0,0,1,1.59,14.71v6.23a14.47,14.47,0,0,1-.53,4.38,69.15,69.15,0,0,1,7.42,14.18,37,37,0,0,1,1.86,18.43,51.08,51.08,0,0,0-12.46-3.85,72.38,72.38,0,0,0-11.4-.93c-3.72,0-7.47.18-11.27.53s-7.47.71-11,1.07q-5,.79-9.81,1.32a87.46,87.46,0,0,1-9.81.53,46.32,46.32,0,0,1-18.56-3.45l-2.65,1.06q-2.13,1.07-5,2.39a17.91,17.91,0,0,1-7.42,1.33q-3.45,0-12.73-2.12L2.65,169.15,0,168.35q7.15-5.83,9.54-11.66A61.55,61.55,0,0,0,13,145.55a117.51,117.51,0,0,0,2.39-25.45q0-4-.14-8.62a58,58,0,0,0-1.06-9.41,46.63,46.63,0,0,0-2.91-9.41A37.43,37.43,0,0,0,6.1,84a84.68,84.68,0,0,0,5.57-9.81,41.51,41.51,0,0,0,3-8.75A46.28,46.28,0,0,0,15.77,57c.09-2.82.14-5.83.14-9Q15.64,32.35,11.8,22.4A47.27,47.27,0,0,0,1.33,5.83H4q3.43-.79,8.88-2A49.1,49.1,0,0,1,23.33,2.65Zm13.79,6.1a17.64,17.64,0,0,0-7.56-3.18A36.28,36.28,0,0,0,20.81,5,58.46,58.46,0,0,0,12.59,6.1q-3.84.8-6.23,1.32,5.31,5.31,8.49,14.85T18.29,48A89.42,89.42,0,0,1,17.1,66.15Q15.64,74.24,9,84a34.75,34.75,0,0,1,7.29,17.5,110,110,0,0,1,1.2,18.56q0,8-.53,14.32t-1.33,11.66a72.86,72.86,0,0,1-3.18,11A25.61,25.61,0,0,1,5.3,167.29a33.59,33.59,0,0,0,9.55,1.06,29.4,29.4,0,0,0,6.36-1.06,17.76,17.76,0,0,0,4.51-2,13.88,13.88,0,0,1,3.71-1.72A37.89,37.89,0,0,0,47.85,167q9.94-.53,20.68-1.85t21.74-1.59a53.35,53.35,0,0,1,21.88,4.24,30.73,30.73,0,0,0-2-17,53.15,53.15,0,0,0-7.82-12.72,58.07,58.07,0,0,0,.79-7.56,79.66,79.66,0,0,0-.13-10.21,72.6,72.6,0,0,0-1.46-10.07,18.2,18.2,0,0,0-2.92-7.16q-4,11.4-8.48,18a35.91,35.91,0,0,1-10.07,10.21A32,32,0,0,1,67.47,136a135.12,135.12,0,0,1-16,1.32q0-5.29-.53-12.33a130.27,130.27,0,0,1-.26-14.45,72.18,72.18,0,0,1,2-14.58,31.57,31.57,0,0,1,6.23-12.72,72,72,0,0,1-5.57-21.34A104.25,104.25,0,0,1,53.16,39,95.94,95.94,0,0,1,57.4,18.69q3-9.15,7.55-13.12A23.65,23.65,0,0,1,59.25,5a22.64,22.64,0,0,0-4.37-.67,24,24,0,0,0-6.36.8A112.94,112.94,0,0,0,37.12,8.75ZM36.06,161.19l-6.9-14.84L39,134.15l-9.81-11.67,8.75-11.66L29.69,99.68,38.18,87,30,79.27l8.75-14-8.22-9.55L39,44.54,30.49,33.4l9.81-6.89L31,15.64l2.92-3.44-.27-.27a11.83,11.83,0,0,0-4.9-2.12,32.26,32.26,0,0,0-6-.53,42.53,42.53,0,0,0-4.51.26,35,35,0,0,0-4.5.8,54.54,54.54,0,0,1,6,15.11,102.3,102.3,0,0,1,2.52,22.27,98,98,0,0,1-1.06,18Q19.88,74,14.05,83.51a53.24,53.24,0,0,1,6.1,18.3,97.9,97.9,0,0,1,1.32,18q0,8.49-.53,15t-1.32,11.8a70.7,70.7,0,0,1-2.12,8.75,32.09,32.09,0,0,1-4,8.22,16.19,16.19,0,0,0,5.57-.8,26.77,26.77,0,0,0,4-1.85H22.8a19,19,0,0,1,6.36-2.39Q32.34,159.88,36.06,161.19Zm60.71-22.27q.53-3.18.93-6.36a48.15,48.15,0,0,0,.39-5.83c0-1.59,0-3.36-.13-5.31s-.22-3.71-.4-5.3a45.45,45.45,0,0,1-9,13.39,37.14,37.14,0,0,1-11.14,7.56,49.51,49.51,0,0,1-13.78,3.58q-7.69.93-17.23,1.19v-6.76c0-3.09-.1-5.52-.27-7.29q-.27-3.18-.4-6.5t-.13-7A92.42,92.42,0,0,1,47.06,97.7a40.12,40.12,0,0,1,6-15,58.76,58.76,0,0,1-4.24-15.91,142.49,142.49,0,0,1-1.06-17.76,113.16,113.16,0,0,1,2.12-22.41A61.42,61.42,0,0,1,55.94,9a22.62,22.62,0,0,0-5.7.27,79.33,79.33,0,0,0-12.06,3.45l-1.86-.27-2.65,3.18L43.74,27,33.67,34.2l7.95,10.07L33.14,55.41,41.36,65,32.61,78.74l8.48,8-8.75,13,8.22,10.87-8.75,11.93,9.81,11.4-10.34,13,7.16,14.84a17.1,17.1,0,0,0,4.24.53h4.25a83.76,83.76,0,0,0,9.14-.53L66,160.66q5.31-.45,10.74-1a110.7,110.7,0,0,1,11.53-.57q4.78,0,9.55.47a69,69,0,0,1,9.54,1.65,35.64,35.64,0,0,0-3.84-11.93A61,61,0,0,0,96.77,138.92ZM49.84,150.06a2.39,2.39,0,1,1,0,4.77,2.39,2.39,0,0,1,0-4.77Zm18-4.25a2.39,2.39,0,1,1-2.39,2.39A2.12,2.12,0,0,1,67.87,145.81Zm18.29-5.3a2.39,2.39,0,1,1-2.38,2.39A2.12,2.12,0,0,1,86.16,140.51Z"/><path class="cls-1" d="M144.75,168.33l-1.32-.27a170.63,170.63,0,0,0,3.71-18.85,143.45,143.45,0,0,0,1.33-19.65q0-10.35-1.07-21.1t-3.18-21.64a173.39,173.39,0,0,0,4.25-21.24,145.89,145.89,0,0,0,1.32-18.86,108.07,108.07,0,0,0-2.12-21.9A70.28,70.28,0,0,0,141,6.1a32.29,32.29,0,0,1,5.83-1.86,23.9,23.9,0,0,1,4.51-.53,35,35,0,0,1,8.09,1.06,43.12,43.12,0,0,1,7.82,2.65,55.58,55.58,0,0,1,24.12-5.56A67.74,67.74,0,0,1,202,2.7q5.29.84,9.81,2a1,1,0,0,1,.66.14,1,1,0,0,0,.66.13c1.77.38,3.41.66,4.91.84s2.87.38,4.11.56a34.52,34.52,0,0,0,6.1.56h5.3q13.25,0,21.74-6.89a4.72,4.72,0,0,0,.26,1.86L266.71,13q1.32,10.33-.53,16.31a22.65,22.65,0,0,1-5.3,9.41,21.69,21.69,0,0,1,2.25,6.76,47.72,47.72,0,0,1,.66,8.08,25.64,25.64,0,0,1-3.71,14,98.91,98.91,0,0,0-19.22-13.91,42.86,42.86,0,0,0-20.81-5.44,41.58,41.58,0,0,0-14.32,2.62A17.26,17.26,0,0,0,198.18,56q-3.06,3.54-2.79,14a74.25,74.25,0,0,0,16.7-2.59q7.17-2.07,14.85-8.81l.8,2.65,10.87,10.87a33.71,33.71,0,0,1,1.32,5.83,38.42,38.42,0,0,1,.27,4.25,28.16,28.16,0,0,1-1.06,7.69,48.54,48.54,0,0,1-2.39,6.62l-1.06,3.18c3.35,2.83,5,7.08,5,12.73a43.7,43.7,0,0,1-.27,4.64q-.27,2.52-.79,6c1.94-1.24,3.84-2.56,5.7-4s3.75-2.83,5.7-4.24a6,6,0,0,0,.13,1.19,6,6,0,0,1,.13,1.19l11.14,10.87c.35,2.48.7,4.77,1.06,6.9a32.89,32.89,0,0,1,.53,5,32.72,32.72,0,0,1-4.24,15.38q5.3,6.1,6.89,11.8t0,15.51a40.64,40.64,0,0,0-11.14-3.85,60.75,60.75,0,0,0-10.34-.93A104.87,104.87,0,0,0,224.55,180q-5.3,1-10.47,1.85a67,67,0,0,1-10.2.8,47.5,47.5,0,0,1-11.8-1.46,31.64,31.64,0,0,1-11.27-5.71A25.54,25.54,0,0,1,169.14,180a40.17,40.17,0,0,1-13-.53Zm43.79-95.69A7.53,7.53,0,0,1,184,69.32a12,12,0,0,1-1.86-5.45,20.7,20.7,0,0,0-.27-3.72,42.33,42.33,0,0,1,.27-10.9,18,18,0,0,1,2.39-6.64A10.86,10.86,0,0,1,188.26,39a23.52,23.52,0,0,1,4.79-2q16-5.31,29.27-.13A84.66,84.66,0,0,1,247.86,53a13,13,0,0,0,1.6-5,39.53,39.53,0,0,0,.4-7.44,46.51,46.51,0,0,0-.93-7.84,22.49,22.49,0,0,0-2.13-6.25,24.94,24.94,0,0,0,5.32-8.51q2.13-5.31,1.33-13.82A28.09,28.09,0,0,1,240.73,9q-7.42,1.08-18.83-.25a94.82,94.82,0,0,1-11-2,87.83,87.83,0,0,0-13.25-2,70.13,70.13,0,0,0-14.72.53,47.06,47.06,0,0,0-15.64,5.3,36.66,36.66,0,0,0-11.53-4,21.69,21.69,0,0,0-11.27.79q6.88,14.06,7.82,34.6t-6,44.94A219.41,219.41,0,0,1,150.85,130q0,20.55-4.51,36.45a26.69,26.69,0,0,0,22.54-5,33.75,33.75,0,0,0,13,6.23,49.66,49.66,0,0,0,13.52,1.06,102.16,102.16,0,0,0,14.19-1.86q7.28-1.45,14.58-2.25a89.94,89.94,0,0,1,14.58-.4,40.21,40.21,0,0,1,14.71,3.84q1.32-8-.53-13.25t-7.42-11.14a28,28,0,0,0,4.37-12.32,65.08,65.08,0,0,0-.39-12.33Q233.24,131.76,219.93,135a59.56,59.56,0,0,1-26.88,1.59,31.33,31.33,0,0,1-4.79-1.33,7.62,7.62,0,0,1-3.73-3.45,21.8,21.8,0,0,1-2.39-7.68,68.88,68.88,0,0,1-.27-14.06q.54-6.61,6.67-6.62a177.52,177.52,0,0,1,21.21,2,30.17,30.17,0,0,1,15.6,7.83q2.91-10.87,1.86-16.18a15.89,15.89,0,0,0-5.31-9,25.67,25.67,0,0,1,1.73-4.64,31.9,31.9,0,0,0,2-5.57,36.67,36.67,0,0,0,1.07-6.76,23.44,23.44,0,0,0-1.07-8.22,32.23,32.23,0,0,1-7.46,5.31,38,38,0,0,1-8.27,2.91,55.16,55.16,0,0,1-9.74,1.33C196.67,72.56,192.8,72.64,188.54,72.64ZM159.6,140.78l9.81-9.55-9.81-9,8.75-9-8.22-8.75,8.48-9.81-8.48-6.1,8.75-10.87-8.48-7.42,8.74-8.49L160.66,53l9.81-5.3-9.54-8.48,8.48-7.69-10.87-6.1L171,13.79c-.71.35-1.37.66-2,.92s-1.28.58-2,.93q-8.47-5.3-16.43-4.77,6.09,15.38,6.09,35.26a148.9,148.9,0,0,1-1.32,19.35,148.25,148.25,0,0,1-4.51,21.21q2.11,11.15,3.18,22t1.06,21.21a153.38,153.38,0,0,1-.92,17q-.94,8.22-2.52,15.64a18.27,18.27,0,0,0,8.48-1.46,41.08,41.08,0,0,0,8.48-5.17c.18,0,.27.05.27.13s.09.13.26.13Zm79.8,3.44a36.2,36.2,0,0,0,4.64-9.41,26.35,26.35,0,0,0,1.19-7.29,128.44,128.44,0,0,1-13,7.56,56.19,56.19,0,0,1-11.4,4.37l.27-.26a41.51,41.51,0,0,1-9.28,2.12,82.73,82.73,0,0,1-9,.53,58.92,58.92,0,0,1-10.6-.8,37.21,37.21,0,0,1-6.23-1.59,10.25,10.25,0,0,1-5.17-4.24,23,23,0,0,1-3.05-9.15,83.79,83.79,0,0,1-.4-16.3q.27-5.57,3.18-8.22a11.44,11.44,0,0,1,8-2.65q11.4.54,19.22,1.46a35.81,35.81,0,0,1,14.71,5.17,12.74,12.74,0,0,0,.27-2.52v-2.52a10.46,10.46,0,0,0-1.59-5.7,26,26,0,0,0-4.51-5.17c.35-1.41.75-2.83,1.19-4.24a41.89,41.89,0,0,1,1.46-4v.27c.53-1.42,1.06-3,1.59-4.64a25.82,25.82,0,0,0,1.06-5.7,38.16,38.16,0,0,1-14.71,4.9,161.31,161.31,0,0,1-18.69.93l-1.06-.27a12.26,12.26,0,0,1-6.9-4.77,17.18,17.18,0,0,1-2.91-8,13.5,13.5,0,0,0-.27-3.45,54.23,54.23,0,0,1,.4-13,20.77,20.77,0,0,1,2.92-7.95,14,14,0,0,1,4.9-4.51,25.69,25.69,0,0,1,6.1-2.39h-.27a48.09,48.09,0,0,1,35.93,1.2A86.06,86.06,0,0,1,245,44.8V42.15a40.88,40.88,0,0,0-.93-8.21,27.76,27.76,0,0,0-3-8.22,44.74,44.74,0,0,0,5-6,16.85,16.85,0,0,0,2.65-7.82,24.48,24.48,0,0,1-7,1.72,79.92,79.92,0,0,1-8.35.4c-1.77,0-3.75,0-6-.13a45.6,45.6,0,0,1-6.23-.66c-1.59-.18-3.27-.4-5-.67s-3.36-.57-4.77-.92c-3-.54-6.19-1.11-9.55-1.73A55.33,55.33,0,0,0,191.68,9a51.65,51.65,0,0,0-15.91,2.66L161.72,24.92l10.87,6.36-8.75,8,9.81,9-9.81,5.3,8,8.22-8.49,8.49,8.22,7.15-8.75,10.87,8.49,6.1-8.75,10.08,8.22,8.48-8.49,9.28,9.81,9L161.72,141l10.87,17.5a41,41,0,0,0,10.08,4.51,34.69,34.69,0,0,0,9.27,1.32,58.4,58.4,0,0,0,9-.79L211,162q5.31-1.06,10.87-1.73a98.93,98.93,0,0,1,11.4-.66,77.29,77.29,0,0,1,8.09.4,36.55,36.55,0,0,1,7.82,1.72Q248.42,153.77,239.4,144.22ZM178.29,22.27c1.5,0,2.25.79,2.25,2.39S179.79,27,178.29,27,176,26.25,176,24.66,176.79,22.27,178.29,22.27Zm1.06,120.89c1.5,0,2.26.8,2.26,2.39s-.76,2.39-2.26,2.39-2.25-.8-2.25-2.39S177.85,143.16,179.35,143.16Zm.53-60.71c1.5,0,2.26.8,2.26,2.39s-.76,2.38-2.26,2.38-2.25-.79-2.25-2.38S178.38,82.45,179.88,82.45Zm12.06,67.34a2.39,2.39,0,1,1-2.38,2.39A2.11,2.11,0,0,1,191.94,149.79Zm2.92-64.69c1.59,0,2.39.76,2.39,2.26s-.8,2.25-2.39,2.25-2.38-.75-2.38-2.25S193.27,85.1,194.86,85.1Zm1.33-66a2.1,2.1,0,0,1,2.38,2.38,2.39,2.39,0,1,1-4.77,0A2.11,2.11,0,0,1,196.19,19.09ZM195.66,122a63.78,63.78,0,0,0-.14,7c.09,2,.22,3.94.4,5.7h6.36c2.48,0,5.17-.13,8.09-.4a62.93,62.93,0,0,0,8.88-1.46,138.75,138.75,0,0,0,15.91-7.15,35.55,35.55,0,0,0-15.64-6.76q-8-1.2-18.83-1.73Q196.19,117.18,195.66,122Zm9,26.78a2.39,2.39,0,1,1-2.39,2.39A2.12,2.12,0,0,1,204.67,148.73Zm3.71-63.36c1.59,0,2.39.75,2.39,2.25s-.8,2.26-2.39,2.26S206,89.13,206,87.62,206.79,85.37,208.38,85.37Zm8.22-66.28A2.11,2.11,0,0,1,219,21.47a2.39,2.39,0,0,1-4.78,0A2.11,2.11,0,0,1,216.6,19.09Zm8.75,128a2.39,2.39,0,1,1-2.39,2.39A2.12,2.12,0,0,1,225.35,147.14Zm7.42-122.48A2.11,2.11,0,0,1,235.16,27a2.39,2.39,0,1,1-4.77,0A2.1,2.1,0,0,1,232.77,24.66Z"/><path class="cls-1" d="M284.47,167.29l-2.92-.8a46.68,46.68,0,0,0,13.66-20.28,259.46,259.46,0,0,0,8.08-28.5,2.35,2.35,0,0,1,.27-1.06,2.4,2.4,0,0,0,.26-1.06c.18-.88.35-1.9.53-3s.36-2.16.53-3.05l4.51-19.08a33.42,33.42,0,0,1,.8-4.25,36.73,36.73,0,0,0,.79-4.24l3.71-14.85q2.65-9.79,4.38-17t3.05-14a24,24,0,0,0,.66-4.25c.09-1.41.13-2.56.13-3.44a21,21,0,0,0-2.12-8.22l-6.63-6.89h-.26a23.77,23.77,0,0,1-2.12-1.2c-.71-.44-1.42-.93-2.12-1.46A85.09,85.09,0,0,1,326,4.37,52.25,52.25,0,0,1,338,2.65,45,45,0,0,1,350,4a32,32,0,0,1,8.22,3.44,62.88,62.88,0,0,1,12.46-3.84,58.51,58.51,0,0,1,10.08-.93,41.65,41.65,0,0,1,10.07,1.19q4.77,1.2,9.55,2.79l7.95,2.91-1.33.8,11.67,11.4q-6.11,4.25-8.22,9.15a24.72,24.72,0,0,0-2.12,9.94,32.92,32.92,0,0,0,.79,7.42q1.06,7.16,3.32,17.37T417,86.16q2.91,11.67,5.7,24.92t4.11,23.07l1.32,6.63a111.9,111.9,0,0,0,2.12,11.93,43.47,43.47,0,0,0,4.25,10.87l2.12,1.06c-.36.35-.62.53-.8.53,0,.18.18.44.53.79L447,176.57a40.11,40.11,0,0,1-9.55,4.37,27.78,27.78,0,0,1-7.42,1.2,30.14,30.14,0,0,1-15.38-4.51,12,12,0,0,1-6.89,3.71,48.87,48.87,0,0,1-9,.8,38.63,38.63,0,0,1-9.15-1.2,48.63,48.63,0,0,1-9.41-3.31l-10.87-10.34-3.45-1.86a14.94,14.94,0,0,0,10.74-8.61,34.78,34.78,0,0,0,3-14.45c0-1.41,0-2.79-.14-4.11s-.22-2.69-.39-4.11H352.34q-.27,2.65-.4,6.1t-.13,6.36a113.34,113.34,0,0,0,.66,12.2,23.88,23.88,0,0,0,3.58,10.6l7.16,7.42q-8.49,5.31-15.11,5.31a27.88,27.88,0,0,1-8.75-1.59,56,56,0,0,1-8.75-3.72,28.86,28.86,0,0,1-16.17,4.51,44.92,44.92,0,0,1-8.49-.93q-4.77-.91-10.87-2.52Zm128.85-44.81a205.1,205.1,0,0,0-3.58-20.67q-2.52-11.4-5.3-23.07t-5.31-22.67q-2.52-11-3.58-19.48c-.35-2.12-.62-4.38-.79-6.76a24.37,24.37,0,0,1,.53-7.16,30.39,30.39,0,0,1,2.52-7A15.43,15.43,0,0,1,403,9.81q-5.57-1.59-10.08-3.05a41.89,41.89,0,0,0-9.54-1.86,41.39,41.39,0,0,0-11.14.8,95.23,95.23,0,0,0-14.58,4.37,44.78,44.78,0,0,0-6.76-3.18,33.3,33.3,0,0,0-9.54-2,48.56,48.56,0,0,0-12.07.8A56.41,56.41,0,0,0,315,10.6a19.12,19.12,0,0,1,6.76,5.57,18.9,18.9,0,0,1,3,6.5,22.49,22.49,0,0,1,.53,6.89q-.27,3.58-.8,7-1.32,7.15-3.05,14.45T317.08,67.6q-2.38,9.56-4.77,21t-5,21.47q-2.38,10.35-4.37,18.83t-4.11,15.24a66.45,66.45,0,0,1-5,12.06,29.19,29.19,0,0,1-7.16,8.75q11.67,3.45,18.82,2.65a30,30,0,0,0,13.26-4.77,35.59,35.59,0,0,0,15,5.7,20.1,20.1,0,0,0,14.18-3.58q-4-1.85-6.1-7.15a47.36,47.36,0,0,1-2.91-11.94,94.52,94.52,0,0,1-.66-13.38q.12-6.77.66-12.07l39.5.27q1.86,3.72,2.78,10.87a79.12,79.12,0,0,1,.54,14.45,50.87,50.87,0,0,1-2.39,13.25q-2,6-6.23,7a23.32,23.32,0,0,0,6.76,2,38.08,38.08,0,0,0,8.35.4,36.87,36.87,0,0,0,8.22-1.46,13,13,0,0,0,6.1-3.58c2.29,1.24,4.55,2.34,6.76,3.31a23.26,23.26,0,0,0,6.76,1.86,21.77,21.77,0,0,0,7.42-.53,27.33,27.33,0,0,0,8.49-3.85,35.16,35.16,0,0,1-8.62-8.35,40.41,40.41,0,0,1-4.91-9.54,61.12,61.12,0,0,1-2.78-11.14Q414.64,129.39,413.32,122.48ZM308.86,161.72l8.22-5.57-8.75-9.8,10.87-7.16-6.89-12.46L323.44,123l-5.3-11.14,10.6-7.69-5.83-10.6,11.4-10.08-6.1-9,11.4-9.28-5.56-11.93,10.87-8.22L338,32.34l13-9-3.18-13.26a35.63,35.63,0,0,0-9.54-1.32q-3.45,0-6.5.26a32.1,32.1,0,0,0-7.55,1.86,19.62,19.62,0,0,1,4.64,8,31.46,31.46,0,0,1,1.19,8.49,52,52,0,0,1-.8,9.54Q328,44,326.09,51.57t-4.5,16.83v-.26a77.44,77.44,0,0,0-2.13,9.41q-.79,4.9-2.12,10.2-1.32,5.84-2.78,11.67l-2.78,11.13.26-.26-2.12,9.54q-3.18,14.05-6.23,24.53A55.4,55.4,0,0,1,295.34,162a16.59,16.59,0,0,0,4,.53H303A22.14,22.14,0,0,0,308.86,161.72ZM410.4,129.64,409.07,123v-.54q-1.32-9.27-3.84-21.07T399.8,77.15q-2.66-10.87-4.91-20.81t-3.58-19.22a20.24,20.24,0,0,1-.66-4.38c-.09-1.68-.13-3.31-.13-4.9a39.55,39.55,0,0,1,.92-8.49,21.54,21.54,0,0,1,3.58-8c-2.3-.7-4.64-1.33-7-1.86a32.38,32.38,0,0,0-7-.79,37.2,37.2,0,0,0-9.41,1.46q-5.43,1.45-13.92,4.37a33.12,33.12,0,0,0-7.95-3.71l3.44,13.52-12.46,8.48,6.9,12.46-11.14,8.49L342,65.75l-11.14,9,6.1,9-11.4,10.34,5.84,10.6-10.87,7.69,5.83,11.93-11.14,3.71L321.85,140l-10.34,6.63,8.75,9.81-.8.8a50.21,50.21,0,0,0,8.89,4.63,21.42,21.42,0,0,0,7.82,1.73,23.12,23.12,0,0,0,4.24-.53,31.84,31.84,0,0,1-5-13.45,102.29,102.29,0,0,1-1.32-16.34c0-1.23,0-2.68.13-4.35s.17-3.34.26-5,.18-3.25.27-4.75.13-2.68.13-3.56l46.4.27a53.47,53.47,0,0,1,3.84,11.86,65.87,65.87,0,0,1,1.46,13.71,76.59,76.59,0,0,1-.93,12.13,26.44,26.44,0,0,1-3.58,10h4.24a26.05,26.05,0,0,0,8.49-1.46,17.14,17.14,0,0,0,7.16-4.64q4.77,2.66,9,4.51A17.85,17.85,0,0,0,421,163.71a21.68,21.68,0,0,0,2.91-.66,30.57,30.57,0,0,1-6.23-7.16,36.59,36.59,0,0,1-3.58-7.82,53.38,53.38,0,0,1-2-8.62C411.68,136.45,411.1,133.18,410.4,129.64Zm-72.64-31q2.12-7.68,5.43-19.48T350,55.54q3.45-11.79,6.1-21.07t3.45-11.93q6.36,21.74,9.94,34.59t5.43,19.75q1.86,6.9,2.52,9.68t.93,4.11l.53,8.22Zm5.57-4Q345.45,87,348,78.21t4.78-16.7q2.25-7.95,4-14.19t2.52-8.88q5.56,19.1,8.35,29.43t4,15.64q1.2,5.31,1.59,7.29c.27,1.33.57,2.7.93,4.11Zm2.91,12.19a2.39,2.39,0,1,1-2.38,2.39A2.12,2.12,0,0,1,346.24,106.84Zm15.11-1.32A2.39,2.39,0,1,1,359,107.9,2.11,2.11,0,0,1,361.35,105.52Zm0-13.26,9.81-.26-.53-1.86v.27q-.53-1.86-1.19-5.44T366.66,73.7l-1.59,5.57Zm12.46-71.85a2.12,2.12,0,0,1,2.39,2.39,2.39,2.39,0,1,1-4.77,0A2.11,2.11,0,0,1,373.81,20.41Zm1.06,86.17a2.39,2.39,0,1,1-2.38,2.38A2.1,2.1,0,0,1,374.87,106.58Zm3.19-72.38a2.11,2.11,0,0,1,2.38,2.39,2.39,2.39,0,0,1-4.77,0A2.12,2.12,0,0,1,378.06,34.2ZM382.56,53A2.12,2.12,0,0,1,385,55.41a2.39,2.39,0,1,1-4.77,0A2.11,2.11,0,0,1,382.56,53Zm2.65,17.24a2.39,2.39,0,1,1-2.38,2.38A2.11,2.11,0,0,1,385.21,70.26Zm6.9,17.49a2.39,2.39,0,1,1-2.39,2.39A2.11,2.11,0,0,1,392.11,87.75Zm1.59,14.59a2.39,2.39,0,1,1-2.39,2.38A2.1,2.1,0,0,1,393.7,102.34Zm2.38,17.23A2.39,2.39,0,1,1,393.7,122,2.11,2.11,0,0,1,396.08,119.57Zm.8,11.66a2.39,2.39,0,1,1-2.39,2.39A2.12,2.12,0,0,1,396.88,131.23Zm3.45,18.3a2.39,2.39,0,1,1-2.39,2.38A2.1,2.1,0,0,1,400.33,149.53Z"/><path class="cls-1" d="M526.25,97.7v4.11a32.45,32.45,0,0,0,.27,4.11q.26-3.7.53-7.42t.26-8A132.27,132.27,0,0,0,526.52,76a76.11,76.11,0,0,0,5-9.67,92,92,0,0,0,4.11-11.4,96.65,96.65,0,0,0,2.65-12.07,77.33,77.33,0,0,0,.93-11.66,36.56,36.56,0,0,0-2.79-14.32A23.31,23.31,0,0,0,526.78,6q11.4-4.65,18.3-4.64a53.41,53.41,0,0,1,10.07.92,25.39,25.39,0,0,1,8,2.79,17.44,17.44,0,0,1,7.29-2.92,49.46,49.46,0,0,1,8.88-.79,72.44,72.44,0,0,1,11.93,1.06q6.36,1.07,10.34,1.86L600.49,5l11.4,11.42a42.31,42.31,0,0,0-9.15,10.35,81.54,81.54,0,0,0-7,13.55,145.15,145.15,0,0,0-5,14.47A129.41,129.41,0,0,0,587.5,68c-.36,1.77-.62,3.54-.8,5.31a27,27,0,0,1-.79,4.52h-.27A55.16,55.16,0,0,0,584.05,90a14.68,14.68,0,0,0,2.65,8.76l3.18,2.92v3.19a26.63,26.63,0,0,0-9.14,8.62,45.93,45.93,0,0,0-5.57,12A83.2,83.2,0,0,0,572.25,139q-.93,7-1.19,13.67a24.9,24.9,0,0,0-.27,3.58v3.32a41.59,41.59,0,0,0,.67,7.44,16.07,16.07,0,0,0,3,6.9l5.56,5.31a50.37,50.37,0,0,0-11.53,1.33A55.87,55.87,0,0,1,556,181.87a60.52,60.52,0,0,1-11.4-1.06,30.11,30.11,0,0,1-10.87-4.51,103.57,103.57,0,0,1-11.27,3,68.3,68.3,0,0,1-15.24,1.73,65.06,65.06,0,0,1-8-.53,55.51,55.51,0,0,1-8.75-1.86l-11.13-10.87-2.39-.53a33.56,33.56,0,0,0,5.31-9.81,20.26,20.26,0,0,0,1.06-11.94q-1.59-6.63-2.39-12.33c-.53-3.81-1.06-7.21-1.59-10.22l-.53-4.78q-1.07-5.29-1.86-8.75a20.33,20.33,0,0,0-2.65-6.37l-7.42-7.42-4.51-3.45a21.42,21.42,0,0,0,6.1-6.5,13.85,13.85,0,0,0,1.59-6.5,31.37,31.37,0,0,0-.53-5.17c-.36-2-.71-4-1.06-6a2,2,0,0,0-.13-.8,1.13,1.13,0,0,1-.14-.53l-1.59-6.9-.53-3.44c-.18-1.24-.35-2.39-.53-3.45s-.35-2.12-.53-3.18q-.79-5.31-2.12-11.28a95,95,0,0,0-3.45-11.8,66,66,0,0,0-5.17-11,33.58,33.58,0,0,0-7.55-8.89A59.22,59.22,0,0,1,455.07,4a34,34,0,0,1,8.35-1.11,59.58,59.58,0,0,1,9.81.79,31.72,31.72,0,0,1,7.69,2.12,35.29,35.29,0,0,1,7.82-2.65,45,45,0,0,1,9.94-1.06,67,67,0,0,1,6.9.42,87.7,87.7,0,0,1,10.07,1.78l-1.06.83L526,16.58a23.08,23.08,0,0,0-8,11.8,52.93,52.93,0,0,0-2.39,16,116.84,116.84,0,0,0,.66,12.32,88.12,88.12,0,0,0,2.12,12.07,95.19,95.19,0,0,0,3.45,11A46.87,46.87,0,0,0,526.52,89c0,1.41,0,2.82-.13,4.24S526.25,96.11,526.25,97.7Zm50.64-6.3a15.6,15.6,0,0,1-5.3-7,20.88,20.88,0,0,1-1.06-8.22A51.94,51.94,0,0,1,572,66.86a107.49,107.49,0,0,0,2-10.75,113,113,0,0,1,2.65-13,119.24,119.24,0,0,1,4.64-14.19,86.35,86.35,0,0,1,6.49-13.14A39.94,39.94,0,0,1,596.25,5.7c-1.59-.17-3.94-.48-7-.93A84.24,84.24,0,0,0,579.68,4a42.45,42.45,0,0,0-9.55.79,12.39,12.39,0,0,0-7,3.59,26.79,26.79,0,0,0-6.5-2.66,47.19,47.19,0,0,0-16.7-1.46A29.3,29.3,0,0,0,532.09,6q6.09,3.72,8.08,12.46a61.73,61.73,0,0,1,1.06,19.22A100,100,0,0,1,537,58.73a76.31,76.31,0,0,1-7.82,17.77,120.33,120.33,0,0,1,.66,18.69,114.52,114.52,0,0,1-1.85,16.7,111.52,111.52,0,0,1-3.32,13.25,52.62,52.62,0,0,1-3.44,8.62q-1.59-4.5-3.32-11t-3-13.92q-1.32-7.43-2-15.51a87.64,87.64,0,0,1,.13-16q-4.77-6.63-7.56-17.37A113.5,113.5,0,0,1,502,38.32a76.6,76.6,0,0,1,1.19-20Q505,9.15,509.82,5.7a52.84,52.84,0,0,0-17.63-.65q-7.56,1.2-11.54,4.43a18.37,18.37,0,0,0-6-2.68,38.67,38.67,0,0,0-8.22-1.37,46.65,46.65,0,0,0-8.62.28A20.68,20.68,0,0,0,451,7.63a30.2,30.2,0,0,1,7.69,9.81,70.51,70.51,0,0,1,4.77,12.46,115.83,115.83,0,0,1,2.92,13.53q1.05,6.9,2.38,12.73A90,90,0,0,0,470.85,67a58.34,58.34,0,0,1,1.72,9.55,20.12,20.12,0,0,1-.93,8.35,15.16,15.16,0,0,1-5.57,7,57.7,57.7,0,0,1,9.28,7.82,18.74,18.74,0,0,1,3.85,8.09,118.08,118.08,0,0,1,2.12,13.39q.92,8.37,4.11,23.74a29.41,29.41,0,0,1,.13,12.07q-1.2,6-3.85,8.88A44.06,44.06,0,0,0,493,167.29a103.79,103.79,0,0,0,11.93-.66,72.32,72.32,0,0,0,10.21-1.86,25.14,25.14,0,0,0,6.63-2.52,32,32,0,0,0,11,4.64,54,54,0,0,0,11.14,1.19,67.14,67.14,0,0,0,10.47-.79q5-.79,8.75-1.33-4.56-3.71-5.33-10.74a82.61,82.61,0,0,1-.24-14.73c.35-4.42.82-9.06,1.44-13.93a87.42,87.42,0,0,1,2.87-13.93,48.35,48.35,0,0,1,5.49-12.2A27.08,27.08,0,0,1,576.89,91.4Zm-81.12,53.35,8-11.13-10.87-7.16,6.89-10.6L490.2,109l6.63-11.13-9.28-4.51,6.63-12.19-9.55-5.84,6.89-10.07-9.81-6.89,8.75-7.16-10.6-6.63,6.89-9-11.93-4.25L490.46,10.6a35.18,35.18,0,0,0-9.28,4.51,22,22,0,0,0-8.35-3.84,39.61,39.61,0,0,0-9.41-1.2,4.46,4.46,0,0,1-2-.26c-.26-.17-.39-.31-.39-.4s-.05-.09-.14,0a7.84,7.84,0,0,1-1.19.66,48.28,48.28,0,0,1,7.56,16.57q2.25,9.15,4.11,18.16l2.12,10.87,1.85,9.81A54.21,54.21,0,0,1,477.47,79a19.49,19.49,0,0,1-4,12.46,33.74,33.74,0,0,1,6,5.3,20.53,20.53,0,0,1,3.18,5.17,25.75,25.75,0,0,1,1.73,6.49q.53,3.72,1.32,9.28.53,4.77,1.59,11.14t2.92,15.37V144a30.6,30.6,0,0,1,.53,9.81,42.61,42.61,0,0,1-1.86,9h5.57c2.65,0,5.34-.13,8.09-.39a44,44,0,0,0,7.82-1.46Zm72.37-80.06,1.59-9.28v.26a89.77,89.77,0,0,1,2-11.13q1.46-6.09,3.58-12.33a102.25,102.25,0,0,1,5-12.19A60.49,60.49,0,0,1,587,9.28c-1.42-.18-2.92-.31-4.51-.4s-3.09-.13-4.51-.13a24.15,24.15,0,0,0-7.16,1.06,13.72,13.72,0,0,0-6.35,4.51,38.42,38.42,0,0,0-9.65-4.25,37.06,37.06,0,0,0-10.44-1.59l-1.86,0c-.18,0-.26-.08-.26-.26H542a.54.54,0,0,0-.4.13.54.54,0,0,1-.4.13,29.46,29.46,0,0,1,4.26,10.24A58.41,58.41,0,0,1,546.67,31a92.71,92.71,0,0,1-3.39,24.39,83.61,83.61,0,0,1-9.07,21.74,38.26,38.26,0,0,1,.53,6.23v6.23a90.45,90.45,0,0,1-1.46,16q-1.46,8.09-3.58,15.51t-4.51,13.65a92.6,92.6,0,0,1-4.5,10.21q-2.13-5.57-4.24-12.73t-4-15q-1.86-7.82-3.05-15.77a101.36,101.36,0,0,1-1.19-15.11V82.32a30.42,30.42,0,0,1,.26-3.84q-4.77-8.22-7.82-21a103.75,103.75,0,0,1-3.05-24.13,81,81,0,0,1,1.06-13.12,42.05,42.05,0,0,1,3.18-11h-3.18c-.88,0-1.81,0-2.78.13s-1.9.23-2.79.4L477.74,30.22l11.93,4.25L482.51,44l11.4,7.16-9,7.16,9.28,6.36-6.9,10.07,9.28,5.57-6.63,12.2,9.55,4.5-6.9,11.4,9.55,7.16-6.89,10.34,11.13,7.16-8.22,11.66,14.05,15.91q3.18-.79,5.84-1.72a13.72,13.72,0,0,0,4-2,41.22,41.22,0,0,0,11.14,5.17,39,39,0,0,0,10.34,1.46q2.91,0,6-.27c2-.17,4-.44,6-.79a28.78,28.78,0,0,1-2.52-10.47,74.87,74.87,0,0,1,.13-11.8c.18-4.24.57-8.66,1.2-13.26a110.64,110.64,0,0,1,2.65-13.52,54.23,54.23,0,0,1,4.9-12.46,33,33,0,0,1,8.48-10.07,20.09,20.09,0,0,1-3-6,22.74,22.74,0,0,1-.93-6.76,33.93,33.93,0,0,1,.66-6.89Q567.61,68.14,568.14,64.69Zm-35,80.86a2.39,2.39,0,1,1-2.39,2.39A2.11,2.11,0,0,1,533.15,145.55Zm9.14-13.26c1.68,0,2.52.8,2.52,2.39s-.84,2.39-2.52,2.39-2.51-.8-2.51-2.39S540.61,132.29,542.29,132.29Zm.8-10.87c1.68,0,2.52.8,2.52,2.39s-.84,2.39-2.52,2.39-2.52-.8-2.52-2.39S541.41,121.42,543.09,121.42Zm3.58-29.16a2.39,2.39,0,1,1-2.39,2.39A2.12,2.12,0,0,1,546.67,92.26Zm6.89-45.86A2.11,2.11,0,0,1,556,48.78a2.39,2.39,0,1,1-4.77,0A2.1,2.1,0,0,1,553.56,46.4Zm1.2,24.92c1.67,0,2.51.79,2.51,2.38s-.84,2.39-2.51,2.39-2.52-.8-2.52-2.39S553.07,71.32,554.76,71.32ZM566,25.19a2.11,2.11,0,0,1,2.39,2.38,2.39,2.39,0,1,1-4.77,0A2.1,2.1,0,0,1,566,25.19Z"/><path class="cls-1" d="M632,168.33l-1.32-.27a170.63,170.63,0,0,0,3.71-18.85,143.46,143.46,0,0,0,1.32-19.65q0-10.35-1.06-21.1T631.5,86.82a171.42,171.42,0,0,0,4.24-21.24,144.23,144.23,0,0,0,1.33-18.86A108.07,108.07,0,0,0,635,24.82,70.63,70.63,0,0,0,628.32,6.1a32.29,32.29,0,0,1,5.83-1.86,23.9,23.9,0,0,1,4.51-.53,35,35,0,0,1,8.09,1.06,43.12,43.12,0,0,1,7.82,2.65,55.58,55.58,0,0,1,24.12-5.56,67.74,67.74,0,0,1,10.61.84q5.3.84,9.81,2a1,1,0,0,1,.66.14,1,1,0,0,0,.66.13c1.77.38,3.4.66,4.91.84s2.87.38,4.11.56a34.52,34.52,0,0,0,6.1.56h5.3q13.24,0,21.74-6.89a4.54,4.54,0,0,0,.26,1.86L754,13q1.32,10.33-.53,16.31a22.55,22.55,0,0,1-5.31,9.41,21.44,21.44,0,0,1,2.26,6.76,47.72,47.72,0,0,1,.66,8.08,25.64,25.64,0,0,1-3.71,14,98.91,98.91,0,0,0-19.22-13.91,42.86,42.86,0,0,0-20.81-5.44A41.54,41.54,0,0,0,693,50.87,17.29,17.29,0,0,0,685.45,56q-3,3.54-2.78,14a74.25,74.25,0,0,0,16.7-2.59q7.17-2.07,14.85-8.81l.8,2.65,10.87,10.87a33.71,33.71,0,0,1,1.32,5.83,41,41,0,0,1,.27,4.25,28.16,28.16,0,0,1-1.06,7.69A48.54,48.54,0,0,1,724,96.5L723,99.68c3.35,2.83,5,7.08,5,12.73,0,1.42-.1,3-.27,4.64s-.44,3.67-.79,6c1.94-1.24,3.84-2.56,5.7-4s3.75-2.83,5.7-4.24a6,6,0,0,0,.13,1.19,6.84,6.84,0,0,1,.13,1.19l11.14,10.87c.35,2.48.7,4.77,1.06,6.9a32.89,32.89,0,0,1,.53,5,32.63,32.63,0,0,1-4.25,15.38q5.31,6.1,6.9,11.8t0,15.51a40.64,40.64,0,0,0-11.14-3.85,60.84,60.84,0,0,0-10.34-.93A104.87,104.87,0,0,0,711.83,180q-5.3,1-10.47,1.85a67.15,67.15,0,0,1-10.21.8,47.48,47.48,0,0,1-11.79-1.46,31.64,31.64,0,0,1-11.27-5.71A25.54,25.54,0,0,1,656.42,180a40.17,40.17,0,0,1-13-.53Zm43.78-95.69a7.53,7.53,0,0,1-4.53-3.32,12.08,12.08,0,0,1-1.87-5.45,20.86,20.86,0,0,0-.26-3.72,42.4,42.4,0,0,1,.26-10.9,17.86,17.86,0,0,1,2.4-6.64A10.86,10.86,0,0,1,675.54,39a23.52,23.52,0,0,1,4.79-2q16-5.31,29.27-.13A84.66,84.66,0,0,1,735.14,53a13,13,0,0,0,1.6-5,40.38,40.38,0,0,0,.4-7.44,46.51,46.51,0,0,0-.93-7.84,22.49,22.49,0,0,0-2.13-6.25,24.94,24.94,0,0,0,5.32-8.51q2.11-5.31,1.33-13.82A28.09,28.09,0,0,1,728,9q-7.43,1.08-18.83-.25a94.82,94.82,0,0,1-11-2,88.16,88.16,0,0,0-13.26-2,70,70,0,0,0-14.71.53,47.06,47.06,0,0,0-15.64,5.3,36.66,36.66,0,0,0-11.53-4,21.69,21.69,0,0,0-11.27.79q6.88,14.06,7.82,34.6t-6,44.94A219.41,219.41,0,0,1,638.13,130q0,20.55-4.51,36.45a26.69,26.69,0,0,0,22.54-5,33.75,33.75,0,0,0,13,6.23,49.66,49.66,0,0,0,13.52,1.06,101.83,101.83,0,0,0,14.18-1.86q7.29-1.45,14.59-2.25a89.91,89.91,0,0,1,14.58-.4,40.21,40.21,0,0,1,14.71,3.84q1.32-8-.53-13.25t-7.42-11.14a28,28,0,0,0,4.37-12.32,65.08,65.08,0,0,0-.39-12.33Q720.51,131.76,707.21,135a59.56,59.56,0,0,1-26.88,1.59,31.33,31.33,0,0,1-4.79-1.33,7.62,7.62,0,0,1-3.73-3.45,21.58,21.58,0,0,1-2.4-7.68,69,69,0,0,1-.26-14.06q.54-6.61,6.67-6.62a177.33,177.33,0,0,1,21.2,2,30.16,30.16,0,0,1,15.61,7.83q2.91-10.87,1.85-16.18a15.82,15.82,0,0,0-5.3-9,24.94,24.94,0,0,1,1.73-4.64,31.9,31.9,0,0,0,2-5.57A36.7,36.7,0,0,0,714,71.05a23.18,23.18,0,0,0-1.06-8.22,32.66,32.66,0,0,1-7.46,5.31,38,38,0,0,1-8.27,2.91,55.16,55.16,0,0,1-9.74,1.33C684,72.56,680.08,72.64,675.81,72.64Zm-28.93,68.14,9.81-9.55-9.81-9,8.75-9-8.22-8.75,8.48-9.81-8.48-6.1,8.75-10.87-8.48-7.42,8.74-8.49L647.94,53l9.81-5.3-9.54-8.48,8.48-7.69-10.87-6.1,12.46-11.66c-.71.35-1.37.66-2,.92s-1.28.58-2,.93q-8.49-5.3-16.43-4.77Q644,26.25,644,46.13a145.38,145.38,0,0,1-5.83,40.56q2.11,11.15,3.18,22t1.06,21.21a151,151,0,0,1-.93,17q-.93,8.22-2.51,15.64a18.27,18.27,0,0,0,8.48-1.46,41.08,41.08,0,0,0,8.48-5.17c.18,0,.27.05.27.13s.09.13.26.13Zm79.8,3.44a36.52,36.52,0,0,0,4.64-9.41,26.35,26.35,0,0,0,1.19-7.29,129.55,129.55,0,0,1-13,7.56,56.19,56.19,0,0,1-11.4,4.37l.27-.26a41.51,41.51,0,0,1-9.28,2.12,82.73,82.73,0,0,1-9,.53,58.85,58.85,0,0,1-10.6-.8,37.21,37.21,0,0,1-6.23-1.59,10.25,10.25,0,0,1-5.17-4.24,23,23,0,0,1-3.05-9.15,83.79,83.79,0,0,1-.4-16.3q.27-5.57,3.18-8.22a11.44,11.44,0,0,1,8-2.65q11.38.54,19.22,1.46a35.86,35.86,0,0,1,14.71,5.17A12.74,12.74,0,0,0,710,103v-2.52a10.46,10.46,0,0,0-1.59-5.7,26,26,0,0,0-4.51-5.17c.35-1.41.75-2.83,1.19-4.24a41.89,41.89,0,0,1,1.46-4v.27c.53-1.42,1.06-3,1.59-4.64a26.41,26.41,0,0,0,1.06-5.7,38.22,38.22,0,0,1-14.71,4.9,161.31,161.31,0,0,1-18.69.93l-1.06-.27a12.23,12.23,0,0,1-6.9-4.77,17.18,17.18,0,0,1-2.91-8,13.5,13.5,0,0,0-.27-3.45,54.23,54.23,0,0,1,.4-13A20.77,20.77,0,0,1,668,39.77a13.87,13.87,0,0,1,4.9-4.51,25.69,25.69,0,0,1,6.1-2.39h-.27a48.09,48.09,0,0,1,35.93,1.2A86.06,86.06,0,0,1,732.25,44.8V42.15a40.88,40.88,0,0,0-.93-8.21,27.76,27.76,0,0,0-3.05-8.22,44.74,44.74,0,0,0,5-6A16.85,16.85,0,0,0,736,11.93a24.48,24.48,0,0,1-7,1.72,79.92,79.92,0,0,1-8.35.4c-1.77,0-3.75,0-6-.13a45.6,45.6,0,0,1-6.23-.66c-1.59-.18-3.28-.4-5-.67s-3.36-.57-4.77-.92c-3-.54-6.19-1.11-9.55-1.73A55.41,55.41,0,0,0,679,9a51.65,51.65,0,0,0-15.91,2.66L649,24.92l10.87,6.36-8.75,8,9.81,9-9.81,5.3,8,8.22-8.48,8.49,8.22,7.15-8.75,10.87,8.48,6.1-8.74,10.08,8.22,8.48-8.49,9.28,9.81,9L649,141l10.87,17.5a41.11,41.11,0,0,0,10.07,4.51,34.82,34.82,0,0,0,9.28,1.32,58.4,58.4,0,0,0,9-.79L698.31,162q5.31-1.06,10.87-1.73a98.93,98.93,0,0,1,11.4-.66,77.42,77.42,0,0,1,8.09.4,36.55,36.55,0,0,1,7.82,1.72Q735.7,153.77,726.68,144.22ZM665.57,22.27c1.5,0,2.25.79,2.25,2.39S667.07,27,665.57,27s-2.25-.79-2.25-2.38S664.07,22.27,665.57,22.27Zm1.06,120.89c1.5,0,2.25.8,2.25,2.39s-.75,2.39-2.25,2.39-2.25-.8-2.25-2.39S665.13,143.16,666.63,143.16Zm.53-60.71c1.5,0,2.25.8,2.25,2.39s-.75,2.38-2.25,2.38-2.25-.79-2.25-2.38S665.66,82.45,667.16,82.45Zm12.06,67.34a2.39,2.39,0,1,1-2.38,2.39A2.12,2.12,0,0,1,679.22,149.79Zm2.92-64.69c1.59,0,2.39.76,2.39,2.26s-.8,2.25-2.39,2.25-2.39-.75-2.39-2.25S680.55,85.1,682.14,85.1Zm1.33-66a2.1,2.1,0,0,1,2.38,2.38,2.39,2.39,0,1,1-4.77,0A2.11,2.11,0,0,1,683.47,19.09ZM682.94,122a63.78,63.78,0,0,0-.14,7c.09,2,.22,3.94.4,5.7h6.36c2.48,0,5.17-.13,8.09-.4a62.93,62.93,0,0,0,8.88-1.46,138.75,138.75,0,0,0,15.91-7.15,35.55,35.55,0,0,0-15.64-6.76q-8-1.2-18.83-1.73Q683.47,117.18,682.94,122Zm9,26.78a2.39,2.39,0,1,1-2.39,2.39A2.12,2.12,0,0,1,692,148.73Zm3.71-63.36c1.59,0,2.39.75,2.39,2.25s-.8,2.26-2.39,2.26-2.38-.75-2.38-2.26S694.07,85.37,695.66,85.37Zm8.22-66.28a2.11,2.11,0,0,1,2.39,2.38,2.39,2.39,0,0,1-4.78,0A2.11,2.11,0,0,1,703.88,19.09Zm8.75,128a2.39,2.39,0,1,1-2.39,2.39A2.12,2.12,0,0,1,712.63,147.14Zm7.42-122.48A2.11,2.11,0,0,1,722.44,27a2.39,2.39,0,1,1-4.77,0A2.1,2.1,0,0,1,720.05,24.66Z"/><path class="cls-1" d="M953.88,6.36,965,17.5l.53,3.18a18,18,0,0,0-5.44,4.9A33.42,33.42,0,0,0,956.4,32a37,37,0,0,0-2.25,6.89c-.53,2.39-1,4.55-1.33,6.49a78.08,78.08,0,0,0-.53,9q0,4.51-.26,7.69c0,.53,0,1.24-.14,2.12s-.13,1.59-.13,2.12a5.44,5.44,0,0,1-.13,1.32,4.35,4.35,0,0,0-.13,1.07,62.07,62.07,0,0,0,0,8.21c.17,1.24.44,2.61.79,4.11a34.73,34.73,0,0,0,1.33,4.38,2.06,2.06,0,0,0,.13.66,2.16,2.16,0,0,1,.13.66,2.65,2.65,0,0,1,.27,1.2,1.61,1.61,0,0,0,.53,1.19l6.89,6.63-2.65,2.65-1.06,1.06a6.13,6.13,0,0,0-.8,1.72,11.09,11.09,0,0,1-.79,2,2.05,2.05,0,0,0-.93,1.46,9.63,9.63,0,0,1-.4,1.72.54.54,0,0,1-.13.4.54.54,0,0,0-.13.4l-.53,2.91v8.75q0,3.45.13,6.9a50.42,50.42,0,0,1-.13,6.36,46.67,46.67,0,0,1-.4,6.63,51.77,51.77,0,0,1-1.46,6.36,111.13,111.13,0,0,1-4.24,12.33,35.8,35.8,0,0,1-9.81,13.39q-3.18,2.38-6.76,4.77a33.44,33.44,0,0,1-7.29,3.71,23.3,23.3,0,0,1-8.09,2.65q-4.11.54-10.2,1.06a37.06,37.06,0,0,1-4.64.27h-4.64q-14.32,0-23.73-3.18a39.42,39.42,0,0,1-15.51-9.28l-6.63-6.63a31.61,31.61,0,0,1-10.6-10.21,55.33,55.33,0,0,1-6.37-14.32,101.26,101.26,0,0,1-3.44-17.89q-1.07-9.81-1.86-20.94A22.78,22.78,0,0,0,828,97a6.07,6.07,0,0,0-.26-1.85,10.68,10.68,0,0,0-.54-1.33A18.25,18.25,0,0,0,826,92.26c-.44-.53-.93-1.06-1.46-1.59L820,85.9q6.36-3.18,6.89-5.57A8.24,8.24,0,0,0,828,77.41c.17-1.06.44-2.29.8-3.71a18.71,18.71,0,0,0,.39-2.91c.09-1.24.14-2.3.14-3.19V66a4.33,4.33,0,0,1,.13-1.06,4.22,4.22,0,0,0,.13-1.06V47.19q0-9.81-.53-16.7-.27-2.39-.66-5.44t-.93-5.7a53,53,0,0,0-3.18-5.83,30.74,30.74,0,0,0-6.63-7.16,35.64,35.64,0,0,1,15.11-3.44q4.51,0,8.88.39a14.48,14.48,0,0,1,7.3,2.52,20.59,20.59,0,0,1,6.62-2,58.67,58.67,0,0,1,9-.66,41.27,41.27,0,0,1,7.82.8A27.51,27.51,0,0,1,881,7.42l-.53.53,11.4,11.67a44.31,44.31,0,0,0-6.49,6.23,37.24,37.24,0,0,0-3.45,4.9,11.85,11.85,0,0,0-1.46,4c-.17,1.24-.35,2.39-.53,3.45-.35,2.47-.66,5-.92,7.42a76.43,76.43,0,0,0-.4,8.22V74.23a29,29,0,0,0,.13,2.92,23.78,23.78,0,0,1,.13,2.39c0,1.94,0,3.84.14,5.7s.22,3.4.39,4.64v1.06l7.69,7.42q-5.84,5.31-7.29,8a23.31,23.31,0,0,0-2,4.51,14.83,14.83,0,0,0-.53,3.18,4.22,4.22,0,0,1-.13,1.06,4.33,4.33,0,0,0-.13,1.06,3.94,3.94,0,0,0,.13,1.19c.09.27,0,.67-.4,1.2v2.65c0,1.24.09,3.09.27,5.57s.44,5,.79,7.42a13.32,13.32,0,0,0,2.65.27h6.23a19.84,19.84,0,0,0,3.32-.27q3.71-.53,7-1.06a7.24,7.24,0,0,0,5.17-3.45v.27a10.44,10.44,0,0,0,1.2-3.18,19.33,19.33,0,0,0,.39-4,18.26,18.26,0,0,0,.27-3v-2.78c0-1.24,0-2.39.13-3.45s.13-2,.13-2.92v-9.8a26.75,26.75,0,0,0-1.85-5.31q-1.59-3.7-7.69-8.48a6.08,6.08,0,0,0,.93-1.06,1.85,1.85,0,0,1,.4-.53c1.94-2.47,3.48-4.42,4.64-5.83a8.46,8.46,0,0,0,2-4.25,28.59,28.59,0,0,0,.27-4.5,55,55,0,0,0-.27-5.57,29.06,29.06,0,0,1-.26-4.38V51.17a25.11,25.11,0,0,0-.13-2.52,22.39,22.39,0,0,1-.14-2.52q-.25-4.77-.66-10.47a97.7,97.7,0,0,0-1.19-10.21,51.29,51.29,0,0,0-2.26-9.15,27,27,0,0,0-6.23-9.94,31,31,0,0,1,8.22-3.18,37.61,37.61,0,0,1,8.49-1.06,46.4,46.4,0,0,1,9.14.93,25.42,25.42,0,0,1,7,2.25,14.94,14.94,0,0,1,6.49-2.52,60.19,60.19,0,0,1,7-.39,48.46,48.46,0,0,1,8,.66,44.07,44.07,0,0,1,7.69,2Zm-1.32.8a63.63,63.63,0,0,0-6.9-1.86,35.31,35.31,0,0,0-7.42-.79,29.31,29.31,0,0,0-7.29.92,22.85,22.85,0,0,0-6.5,2.79c-.17-.71-1.41-1.41-3.71-2.12a38.26,38.26,0,0,0-8-1.46,46.6,46.6,0,0,0-9.28.13,23.81,23.81,0,0,0-8,2.12,25.3,25.3,0,0,1,5,9A75.55,75.55,0,0,1,903,25.45q.53,4.52.93,9.94t.39,10.74q.27,5.31.27,10.21t.26,8.61a101.1,101.1,0,0,1,0,10.61A11.44,11.44,0,0,1,903,80.2a76,76,0,0,1-4.77,6.49q5,4.52,6.51,8.35a31.35,31.35,0,0,1,1.71,5.44,2.61,2.61,0,0,0,.13,1.19c.09.09,0,.58-.13,1.46,0,1.24,0,3-.12,5.17s-.12,5.08-.12,8.62v2.91A21.51,21.51,0,0,1,906,123c-.15,1.41-.35,2.78-.59,4.1a14.73,14.73,0,0,1-1.06,3.58,8.8,8.8,0,0,1-6.23,4.51c-2.74.53-5.34,1-7.82,1.33a67.37,67.37,0,0,1-14.45-.4,12.94,12.94,0,0,1-8.88-5.44,13.29,13.29,0,0,1-1.06-2,20.64,20.64,0,0,1-1.06-3.31,67.34,67.34,0,0,1-1.19-9c-.27-3.54-.4-5.92-.4-7.16v-2.92a21,21,0,0,0,.27-4.24,13.63,13.63,0,0,1,.79-4.24,14.8,14.8,0,0,1,2-4.38,49.13,49.13,0,0,1,6-6.76,20,20,0,0,1-4.91-4,8.74,8.74,0,0,1-1.46-4.51,39.32,39.32,0,0,1-.53-6.89q0-4-.26-8.75c-.18-3.54-.27-7.11-.27-10.74V41.89c.18-3,.35-5.83.53-8.49s.44-5.12.8-7.42c.17-1.06.35-2.25.53-3.58A12.91,12.91,0,0,1,868,18.29a28.46,28.46,0,0,1,3.18-4.77A45.65,45.65,0,0,1,877,7.69,22.42,22.42,0,0,0,870,6a52.48,52.48,0,0,0-8.22-.13,51,51,0,0,0-7.69,1.06,16,16,0,0,0-5.16,1.86,12.57,12.57,0,0,0-5.17-2.12A51.13,51.13,0,0,0,836,5.57a46.7,46.7,0,0,0-8,.13,20.73,20.73,0,0,0-5.7,1.19,13.66,13.66,0,0,1,4.51,5.84c1.06,2.47,1.94,4.42,2.65,5.83a28.46,28.46,0,0,1,1.46,5.7q.39,2.77.66,6.23.52,6.9.53,16.7v16.7c-.18,2.3-.26,4.25-.26,5.84A15.61,15.61,0,0,1,831.4,74a26.66,26.66,0,0,1-2.65,7.42,12.79,12.79,0,0,1-1.6,2.78A8.32,8.32,0,0,1,824,86.69a12.74,12.74,0,0,0,1.2,1.06c.44.36.83.71,1.19,1.06a10.6,10.6,0,0,1,1.59,2A19.58,19.58,0,0,1,829,93.06a13.4,13.4,0,0,1,1.33,3.18,14.25,14.25,0,0,1,.79,4.51q1.07,16.69,3.18,29.95T842.66,153q6.23,9,18.3,13.26t32.74,2.65a98.74,98.74,0,0,0,9.94-.4,23.43,23.43,0,0,0,8.09-2.52,36.84,36.84,0,0,0,6.89-3.57,72.54,72.54,0,0,0,6.36-4.64,34.75,34.75,0,0,0,9.68-13.13,109.07,109.07,0,0,0,4.11-12.06q.79-3.7,1.19-6.23c.27-1.68.49-3.75.67-6.23V97.3a5.13,5.13,0,0,0,.39-1.46,19.46,19.46,0,0,1,.4-2,18.13,18.13,0,0,1,1.33-3.18,7.64,7.64,0,0,1,1.85-4.24c.35-.35.75-.8,1.2-1.33A15.29,15.29,0,0,1,947,83.78a15.38,15.38,0,0,1-4.91-4.38,20.44,20.44,0,0,1-2-4.64A41.22,41.22,0,0,1,938.64,70a20.36,20.36,0,0,1-.66-5,25.81,25.81,0,0,1-.14-4.64q.13-2.51.14-6.23.25-3.7.39-9.14t.66-11.8c.36-2.12.84-4.37,1.46-6.76A46.34,46.34,0,0,1,943,19.22a38.55,38.55,0,0,1,3.85-6.76A19.16,19.16,0,0,1,952.56,7.16ZM851,133.62l-8.22-10.87L851.28,110l-8.22-8,8.75-13.79-8.48-9.54,8.75-11.4-8.49-10.87,9.81-7.16-9.28-10.6,8.49-10.08-11.14-7.95,6.1-7.16a20.31,20.31,0,0,0-7.16-2.65,43.34,43.34,0,0,0-7.95-.8h-2.12l2.38,5-.26-.26.53,1.32a39.84,39.84,0,0,1,2.12,7.69c.35,2.3.62,4.42.79,6.36q.54,5.58.53,13.52V63.89A16.64,16.64,0,0,1,836.3,66a14.94,14.94,0,0,0-.13,1.86v3.58a12.3,12.3,0,0,1-.53,3.31c-.36,1.42-.75,2.88-1.19,4.38a18,18,0,0,1-2,4.37l.26-.26c-.35.71-.66,1.37-.93,2a9.35,9.35,0,0,1-1.19,2c.53.71,1,1.33,1.33,1.86A12.59,12.59,0,0,1,833,91.2l-.53-.26a22.28,22.28,0,0,1,2.12,4.5,15.88,15.88,0,0,1,.79,5q1.07,12.72,2.65,23.6a63.9,63.9,0,0,0,5.84,19.35Zm84.57-57.53v.26a27.07,27.07,0,0,1-1.72-5.43,27.52,27.52,0,0,1-.67-6V54.08a23.65,23.65,0,0,1,.14-2.65c.08-.88.13-1.76.13-2.65q.25-3.44.26-7.55a74.73,74.73,0,0,1,.53-8.62,59.87,59.87,0,0,1,2.52-11.4A35.6,35.6,0,0,1,943,9.54c-.88-.17-1.77-.3-2.65-.39A26.29,26.29,0,0,0,937.71,9q-6.36,0-16.17,6.37c-.36-2-1.82-3.49-4.38-4.64A20.21,20.21,0,0,0,908.8,9h-3.32a15.26,15.26,0,0,0-3,.27,32.37,32.37,0,0,1,3,7.82A75.08,75.08,0,0,1,907,24.92c.34,3,.63,6.36.89,10.08s.38,7.42.38,11.13l.53,18.56c.18,2,.27,4,.27,6.23a38.08,38.08,0,0,1-.27,5.17,22.85,22.85,0,0,1-1.46,4.77,23.91,23.91,0,0,1-3.58,5.3,33.3,33.3,0,0,1,5,8.09,27.3,27.3,0,0,1,1.86,5.7v1.59a1.13,1.13,0,0,1-.14.53,1.84,1.84,0,0,0-.13.8v1.32l.27-1.06v3.45c0,1.24,0,2.69-.14,4.37s-.13,3.67-.13,6v3.31a18,18,0,0,1-.26,3.32c-.18,1.59-.45,3.22-.79,4.9a15,15,0,0,1-1.59,4.37,12.83,12.83,0,0,1-6.72,6,39.27,39.27,0,0,1-8.31,2,8.08,8.08,0,0,0-1.32.13,8.07,8.07,0,0,1-1.31.13,55.69,55.69,0,0,1-16.23-1.19q-7.25-1.72-10.94-6.5a9.83,9.83,0,0,1-1.58-2.78q-.52-1.45-1.32-4.11a25.42,25.42,0,0,1-.8-4.37c-.17-1.68-.31-3.36-.39-5s-.18-3.22-.27-4.64-.13-2.47-.13-3.18v-3.45a15.83,15.83,0,0,0,.26-3.71,15.86,15.86,0,0,1,1.06-5.3c.53-1.59.93-2.92,1.19-4s1.63-2.91,4.09-5.57a24.2,24.2,0,0,1-2.5-3.71,11.5,11.5,0,0,1-1.45-4.5,20.07,20.07,0,0,1-.53-4.91V68.4c0-.88,0-1.76-.13-2.65a28.88,28.88,0,0,1-.14-2.92Q860,58.06,860,52V41.89q.26-5,.53-9.28a72.73,72.73,0,0,1,.79-7.42v.53a2.84,2.84,0,0,1,.14-.93,2.52,2.52,0,0,0,.13-.66c.35-2.13.7-4.2,1.06-6.23s1.94-4.55,4.77-7.56H864.8a42.2,42.2,0,0,0-7.42.66,28.22,28.22,0,0,0-6.63,2l-6.1,7.16,11.14,8-9,10.61,10.08,11.13L846.77,57l8,10.34-8.49,11.14,8.22,9.27-8.75,13.79,8.49,7.95-9,13,8.49,11.14-8.75,11.67L854.73,157a39.15,39.15,0,0,0,11.93,5.83,56,56,0,0,0,16.44,2.12c1.59,0,3.18,0,4.77-.13s3.35-.22,5.3-.4c4.06,0,7.24-.08,9.54-.26a17.31,17.31,0,0,0,6.9-2.12,53.4,53.4,0,0,0,6.09-3.32,57.93,57.93,0,0,0,6.1-4.37,35.12,35.12,0,0,0,8.35-11.93,107.83,107.83,0,0,0,4.11-11.14l-.26.27c.53-2.47.93-4.51,1.19-6.1s.49-3.35.66-5.3V97.3l1.06-4.77a8.77,8.77,0,0,1,.53-2.12,10.68,10.68,0,0,1,.54-1.33,11.57,11.57,0,0,1,2.12-4.51,14.51,14.51,0,0,1-3.05-4.11A20.76,20.76,0,0,1,935.59,76.09Zm-71.85,70.79a2.39,2.39,0,1,1-2.39,2.38A2.11,2.11,0,0,1,863.74,146.88Zm25.45,3.71a2.39,2.39,0,1,1-2.38,2.38A2.11,2.11,0,0,1,889.19,150.59ZM906,147.94c1.5,0,2.25.79,2.25,2.38s-.75,2.39-2.25,2.39-2.26-.8-2.26-2.39S904.52,147.94,906,147.94ZM916.23,18a2.1,2.1,0,0,1,2.39,2.38,2.39,2.39,0,1,1-4.77,0A2.1,2.1,0,0,1,916.23,18Zm2.66,96.5a2.39,2.39,0,1,1-2.39,2.39A2.11,2.11,0,0,1,918.89,114.53Zm1.32-29.69a2.39,2.39,0,1,1-2.38,2.38A2.11,2.11,0,0,1,920.21,84.84Zm.27,11.93a2.39,2.39,0,1,1-2.39,2.38A2.1,2.1,0,0,1,920.48,96.77Zm.26-46.93a2.12,2.12,0,0,1,2.39,2.39,2.39,2.39,0,0,1-4.77,0A2.11,2.11,0,0,1,920.74,49.84Zm.27,84.31a2.39,2.39,0,1,1-2.39,2.39A2.11,2.11,0,0,1,921,134.15Zm1.32-105.52A2.12,2.12,0,0,1,924.72,31,2.39,2.39,0,0,1,920,31,2.11,2.11,0,0,1,922.33,28.63Zm1.59,46.13a2.39,2.39,0,1,1-2.38,2.39A2.12,2.12,0,0,1,923.92,74.76Z"/><path class="cls-1" d="M1013.53,111.78a2.43,2.43,0,0,0,1.06.26,36.81,36.81,0,0,1,18.83-4.78h2.65a13.32,13.32,0,0,1,2.65.27q-6.1-2.93-11.8-6.37a48.49,48.49,0,0,1-10.21-8.24l-8-7.69A46.85,46.85,0,0,1,996.3,70q-4.77-9.16-4.77-23v-7.7c.17-1.77.44-3.67.79-5.71a18.72,18.72,0,0,1,1.59-5.18.49.49,0,0,1,.14-.39.58.58,0,0,0,.13-.4c.88-1.95,1.59-3.58,2.12-4.91a13.72,13.72,0,0,1,1.59-3.06,34.53,34.53,0,0,1,8.75-8.76,38.12,38.12,0,0,1,10.07-5,71.82,71.82,0,0,1,9.94-2.12A123.86,123.86,0,0,1,1040,2.65h1.59a1.12,1.12,0,0,0,.53-.13,1.84,1.84,0,0,1,.8-.13q3.18-.27,7.82-.4a37.13,37.13,0,0,1,7.56.4q15.9,2.11,25.18,6.77t13.79,10.75l9,9a30,30,0,0,1,7.43,11.55,64.42,64.42,0,0,1,2.91,12.34q.54,3.72,1.33,7.31a16.16,16.16,0,0,0,4.24,7.3l.53.53a37.92,37.92,0,0,1-5.83,2.79,22.39,22.39,0,0,1-8.22,1.46c-1.42,0-3-.09-4.9-.27a31,31,0,0,1-6.24-1.33l-4.5,2.66h.26a47.81,47.81,0,0,1-6,3.72,39.52,39.52,0,0,1-9.94,2.92c.88.35,1.72.66,2.51.92a18.41,18.41,0,0,1,2.26.93,49.67,49.67,0,0,1,11.66,7.31,58,58,0,0,1,8.22,8.62l6.63,6.64a39.33,39.33,0,0,1,10.74,17.13,65.17,65.17,0,0,1,2.78,18.45c0,1.77,0,3.36-.13,4.78s-.23,2.83-.4,4.25q-.79,5.31-1.59,9.29-1.06,2.13-2.25,4.38a37.19,37.19,0,0,1-2.52,4.12l-4.24,4.78-.54.53a41.94,41.94,0,0,1-6.49,3.85,35.66,35.66,0,0,1-6.76,2.52,38.28,38.28,0,0,1-10.21,2.52c-3.8.45-8.08.84-12.86,1.2a34.81,34.81,0,0,1-4.64.26h-9.41a25.62,25.62,0,0,1-4-.26c-2,0-4,0-6.1-.14a21.64,21.64,0,0,1-5-.66,62.56,62.56,0,0,1-7.42-1.32q-3.18-.79-6.9-2.13a34.56,34.56,0,0,1-5.7-3.32,29.2,29.2,0,0,1-4.9-4.38l-6.63-6.37a39.1,39.1,0,0,1-8.22-7.17,30.33,30.33,0,0,1-5.56-9l-1.6-9.82q-.52-3.2-1.06-6.24a31.08,31.08,0,0,0-1.72-6.11,19.79,19.79,0,0,0-3.31-5.57,18.93,18.93,0,0,0-5.57-4.39,65,65,0,0,1,10.6-3.58,34.49,34.49,0,0,1,7.16-.93,34.85,34.85,0,0,1,4.64.27c1.33.17,2.43.35,3.32.53Zm1.33,2.75c-1.59-.17-4.6-.53-9-1.06a28.46,28.46,0,0,0-14.31,2.39,11.8,11.8,0,0,1,5.17,5.56,38.08,38.08,0,0,1,2.65,8.22c.62,3,1.1,6.1,1.46,9.28s.79,6.1,1.32,8.75a31.51,31.51,0,0,0,17.5,16.17,66.91,66.91,0,0,0,6.76,2.52,43.71,43.71,0,0,0,7,1.46,42.36,42.36,0,0,0,4.77.26h6.1q3.7.27,8.61.27t9.15-.27a102.47,102.47,0,0,0,12.86-.66,41.92,41.92,0,0,0,9.94-2.52q3.18-1.32,6.36-2.78a35.26,35.26,0,0,0,6.1-3.58,31.94,31.94,0,0,1,2.65-2.39,8.8,8.8,0,0,0,2.12-2.38,45.39,45.39,0,0,0,4.24-6.89c.36-1.77.62-3.45.8-5a43.91,43.91,0,0,1,.79-4.77,86.23,86.23,0,0,0,.53-13.79,44.39,44.39,0,0,0-27-39.5q-5-2.39-13.39-5.7a134.73,134.73,0,0,1-16.57-8,86.75,86.75,0,0,1-14.58-10.2q-6.36-5.56-7.42-12.2-1.59-9,3.71-12.86t15.64-4.37a48.1,48.1,0,0,1,8,.13,14.41,14.41,0,0,1,6.09,1.72c1.77,1.24,3.14,3.5,4.11,6.76a40.23,40.23,0,0,1,1.59,10.48,44.73,44.73,0,0,1-.92,10.47c-.71,3.27-1.69,5.43-2.92,6.49a30.19,30.19,0,0,0,6.76-1.59,42.47,42.47,0,0,0,9.41-4.9,56.9,56.9,0,0,1,5-3,36.88,36.88,0,0,0,8.48,1.46,34.61,34.61,0,0,0,6.37-.27,20.41,20.41,0,0,0,4.37-1.06,29.1,29.1,0,0,0,2.78-1.19,13.62,13.62,0,0,1-3.71-7.56q-.79-4.64-1.72-9.81a79.54,79.54,0,0,0-2.65-10.47,25.11,25.11,0,0,0-6.36-9.94,39.66,39.66,0,0,0-13-8.09q-8.34-3.44-22.4-4.77a44.61,44.61,0,0,0-8.61-.26c-3.28.18-6.41.35-9.42.53a86.73,86.73,0,0,0-12.85.79,74.73,74.73,0,0,0-9.68,2.12,39.08,39.08,0,0,0-9.15,4.78,32.77,32.77,0,0,0-8.08,8,27.13,27.13,0,0,0-4,8.22,36.86,36.86,0,0,0-2.12,10.34q-1.06,14.31,1.72,23.46A41.17,41.17,0,0,0,1004,78.48a42.63,42.63,0,0,0,12.72,9.94q7.42,3.84,15.64,7.42t16.71,7.69A80.5,80.5,0,0,1,1065.23,114a11.24,11.24,0,0,1,4.64,6.89,36.3,36.3,0,0,1,.93,7.69,17.87,17.87,0,0,1-1.06,6.1,8,8,0,0,1-4.78,4.51,41.56,41.56,0,0,1-9.41,1.32,63,63,0,0,1-10.2-.26,19.77,19.77,0,0,1-6.76-1.73,34.72,34.72,0,0,1-4.11-2.51,11.77,11.77,0,0,1-2.92-6.37,21.63,21.63,0,0,1,.26-7.55,22.72,22.72,0,0,1,2.79-7.16,18.44,18.44,0,0,1,4.37-5.17,27.25,27.25,0,0,0-12.59-.27A25.17,25.17,0,0,0,1014.86,114.53ZM1005.31,52l2.12,12.2,13-4-.8,11.67L1031,69.2l2.39,12.19,10.87-3.45,4.24,13.26,10.07-4,3.71,13.26,11.93-2.65,3.19,12.46,13-3.71,2.91,14.31h10.34a52.74,52.74,0,0,0-6.36-18.29q-5-9-17.76-15.11l.26.26L1071.06,84q-6.11-2.64-13.65-6.23a112.73,112.73,0,0,1-14.32-8.08,65.89,65.89,0,0,1-11.8-10,24.68,24.68,0,0,1-6.36-11.53q-1.86-11.4,4.51-16.57t19.09-6a53,53,0,0,1,9.14.26,17.84,17.84,0,0,1,7.56,2.39q4.24,2.91,6,9.28a50.42,50.42,0,0,1,1.73,13.25,44.71,44.71,0,0,1-.8,8.75,58.09,58.09,0,0,0,6.37-3.44l6.62-4.25a48.21,48.21,0,0,0,11.4,1.86,23.1,23.1,0,0,0,4.51-.53,14.62,14.62,0,0,1-1.85-5.57,58.43,58.43,0,0,0-1.07-6.36c-.53-3.18-1.23-6.45-2.12-9.81a23.44,23.44,0,0,0-5.3-9.55q-4-4.5-11.8-7.82t-21.34-4.64a28.59,28.59,0,0,0-6.23-.39q-3.32.13-6.76.39a15.69,15.69,0,0,0-2.25.14,16.11,16.11,0,0,1-2.26.13,91.88,91.88,0,0,0-12.19.66,57.49,57.49,0,0,0-9,2h.27a30.08,30.08,0,0,0-8.35,4.24,30.71,30.71,0,0,0-7,6.9,26.84,26.84,0,0,0-3.71,8.21,14,14,0,0,0-.79,3.58c-.18,1.51-.36,3-.53,4.38-.18,3-.23,5.79-.14,8.35a61.06,61.06,0,0,0,.67,7.29Zm86.43,70.79L1089.09,109l-13.26,3.45L1072.92,100,1061,102.6l-3.71-12.72-9.81,4-4.24-13.52-11.14,3.45-2.65-12.2-11.93,2.92.79-11.67-12.46,3.71L1004,55.14l-4.24,2.13a37.67,37.67,0,0,0,5,13,41.69,41.69,0,0,0,8.22,9.28,59.52,59.52,0,0,0,10.61,7q5.82,3.06,12.19,5.7,7.7,3.45,16.17,7.42a71.11,71.11,0,0,1,16.18,10.61l-.27-.27c3.53,2.3,5.66,5.22,6.36,8.75a49,49,0,0,1,1.06,9.55,25.56,25.56,0,0,1-1.32,8.35,10.42,10.42,0,0,1-5.83,6,72.75,72.75,0,0,1-11.93,1.86,59.9,59.9,0,0,1-11.4,0,25.37,25.37,0,0,1-8.22-2.39,52.55,52.55,0,0,1-5.84-3.71,18,18,0,0,1-4-11.93,28,28,0,0,1,3.44-13.52,18.69,18.69,0,0,0-12.46,4.77l-2.91,1.06a8.08,8.08,0,0,1-1.33-.13,8.08,8.08,0,0,0-1.32-.13c-.89-.18-2-.35-3.45-.53a33.65,33.65,0,0,0-4.24-.27h-2a9,9,0,0,0-2.25.27,29.3,29.3,0,0,1,3.57,9.94q.93,5.43,1.46,10.74l1.33,7.15a29.86,29.86,0,0,0,6.1,8.09,23.33,23.33,0,0,0,8.48,5.44q3.71,1.59,6.23,2.38a39.19,39.19,0,0,0,6.23,1.33,38.09,38.09,0,0,0,4.77.26h6.37a27.53,27.53,0,0,0,4,.27h8.49a33.65,33.65,0,0,0,4.24-.27,108.83,108.83,0,0,0,12.06-.53,41.56,41.56,0,0,0,9.15-2.12h.26a.76.76,0,0,0,.53-.26c1.59-.71,3.36-1.5,5.31-2.39a37.41,37.41,0,0,0,5.3-2.92l4-4a18,18,0,0,0,2-2.79c.44-.79,1-1.81,1.73-3l.79-4.25a12,12,0,0,0,.27-2.38,6.41,6.41,0,0,1,.53-2.39c.17-1.41.3-2.92.4-4.51s.13-3,.13-4.24V125a12.74,12.74,0,0,0-.27-2.52ZM1013.27,46.4a2.1,2.1,0,0,1,2.38,2.38,2.39,2.39,0,1,1-4.77,0A2.11,2.11,0,0,1,1013.27,46.4Zm.79,84a2.39,2.39,0,1,1-2.38,2.38A2.11,2.11,0,0,1,1014.06,130.44Zm1.59-98.1a2.12,2.12,0,0,1,2.39,2.39,2.39,2.39,0,1,1-4.77,0A2.11,2.11,0,0,1,1015.65,32.34Zm7.16-12.46a2.12,2.12,0,0,1,2.39,2.39,2.39,2.39,0,1,1-4.77,0A2.11,2.11,0,0,1,1022.81,19.88Zm6.1,129.38a2.39,2.39,0,1,1-2.39,2.39A2.11,2.11,0,0,1,1028.91,149.26Zm11.93-133.62a2.12,2.12,0,0,1,2.39,2.39,2.39,2.39,0,0,1-4.78,0A2.12,2.12,0,0,1,1040.84,15.64ZM1043,59.39a5.28,5.28,0,0,0,.8,3.18,63.92,63.92,0,0,0,9.67,6.1q5.17,2.64,10.47,5l-4.24-4.24a8.17,8.17,0,0,0-1.46.13,6.06,6.06,0,0,1-1.19.14,24.82,24.82,0,0,0,6.76-8.75,23.55,23.55,0,0,0,2.52-10.08c0-1.23,0-2.38-.13-3.44s-.23-2.21-.4-3.45h-5q-9.29.54-14.18,3.84T1043,59.39Zm11.67,61.5a28.45,28.45,0,0,0-6.77,8,20.59,20.59,0,0,0-3,9h.79a62.29,62.29,0,0,0,18.29-.79,7.15,7.15,0,0,0,3.32-3.72,13,13,0,0,0,.93-4.77,26.93,26.93,0,0,0-.27-3.58,28.08,28.08,0,0,0-.79-3.84,75.82,75.82,0,0,0-11.27-6.23q-5.7-2.52-11-4.91l-1.59-.53Zm-1.86-104.72a2.12,2.12,0,0,1,2.39,2.39,2.39,2.39,0,0,1-4.78,0A2.12,2.12,0,0,1,1052.77,16.17ZM1053,153a2.39,2.39,0,1,1-2.38,2.39A2.11,2.11,0,0,1,1053,153Zm24.13-127.52a2.12,2.12,0,0,1,2.39,2.39,2.39,2.39,0,0,1-4.78,0A2.12,2.12,0,0,1,1077.16,25.45Zm3.18,122a2.39,2.39,0,1,1-2.38,2.38A2.11,2.11,0,0,1,1080.34,147.41Zm5.57-17.77a2.39,2.39,0,1,1-2.39,2.39A2.12,2.12,0,0,1,1085.91,129.64ZM1087.23,40c1.6,0,2.39.45,2.39,1.33a3.3,3.3,0,0,1-1.06,2.38,3.87,3.87,0,0,1-2.39,1.2q-1.32.14-1.32-2.52A2.11,2.11,0,0,1,1087.23,40Z"/></g></g></svg>