<svg xmlns="http://www.w3.org/2000/svg" viewBox="0 0 171.15 208.72"><defs><style>.cls-1{fill:#e0dd02;}</style></defs><g id="Capa_2" data-name="Capa 2"><g id="Capa_1-2" data-name="Capa 1"><path class="cls-1" d="M.21,201a18.44,18.44,0,0,1,.27-6.89A27.68,27.68,0,0,1,3,187a20.57,20.57,0,0,1,4.5-5.83,13.87,13.87,0,0,1,6.23-3.32,9.76,9.76,0,0,1,6.1-.13,9.32,9.32,0,0,1,4.38,3.18,13.39,13.39,0,0,1,2.38,5.17,13,13,0,0,1-.13,6.1,19.21,19.21,0,0,1-4.24,8.48,25.78,25.78,0,0,1-7.56,6.5,10.62,10.62,0,0,1-8.08,1.19Q2.59,207.32.21,201ZM126.41,0a42.65,42.65,0,0,0,6.23.66,41.85,41.85,0,0,1,7,.93,44,44,0,0,1,16,5.83,32.48,32.48,0,0,1,10.6,10.48A33,33,0,0,1,171,32.21a48.16,48.16,0,0,1-1.59,17.1A55.38,55.38,0,0,1,156.1,73a76.21,76.21,0,0,1-21.74,15.77,295.53,295.53,0,0,1-27.44,11.8Q93,105.79,79.22,111.88A166.43,166.43,0,0,0,64.11,119q-7.43,4-14.58,8.48a32.22,32.22,0,0,0-9,8,59.12,59.12,0,0,0-6.63,10.87A9.76,9.76,0,0,1,32,148.73a2.36,2.36,0,0,1-2.65.8c-.89-.36-1.37-1.24-1.46-2.65a6.4,6.4,0,0,1,.4-3.19A68.27,68.27,0,0,1,41,125.53a98.84,98.84,0,0,1,17.23-13.92q13.53-9,27-17.36t27-17.63a94.81,94.81,0,0,0,19.35-17,58.51,58.51,0,0,0,11.93-22.8c.35-1.59.66-3.22.93-4.9a32.51,32.51,0,0,0,.4-5.17q.53-8.76-4.38-14.32T126.41,5.83A45.25,45.25,0,0,0,103.34,9,78.17,78.17,0,0,0,83.73,21.47a100,100,0,0,0-15,15.65,46.2,46.2,0,0,0-8.62,20.41q-1.59,9.81,7.95,13.26,7.17,2.65,1.33,7.15a16.14,16.14,0,0,1-9.54,4A28.25,28.25,0,0,1,49.79,80.6q-5.31-1.86-7.42-5.7a23.45,23.45,0,0,1-2.65-9.15,34,34,0,0,1,2.91-17.63A63.08,63.08,0,0,1,52.44,33.4Q67,17,85.45,9.15A122.71,122.71,0,0,1,126.41,0Z"/></g></g></svg>