<svg xmlns="http://www.w3.org/2000/svg" viewBox="0 0 1199.15 249.41"><defs><style>.cls-1{fill:#fff;}</style></defs><g id="Capa_2" data-name="Capa 2"><g id="Capa_1-2" data-name="Capa 1"><path class="cls-1" d="M115.37,154.88q-4,3.7-8.61,7.55a70.56,70.56,0,0,1-9.68,6.76,46.33,46.33,0,0,1-10.61,4.51,22.66,22.66,0,0,1-11.4.27q-5.56-1.33-8.22-4.91a19,19,0,0,1-3.44-8.22,29.59,29.59,0,0,1,0-9.67,47.51,47.51,0,0,1,2.38-9.28,148,148,0,0,1,9.15-18.3q5.18-8.75,10.61-17.36L96.42,89q5.43-8.61,9.94-17.63a28.74,28.74,0,0,0,1.46-3.57c.43-1.33.88-2.7,1.32-4.11a20.26,20.26,0,0,1,1.72-4,6,6,0,0,1,2.92-2.65,72.32,72.32,0,0,0,10.47-.8A42.1,42.1,0,0,1,134.73,56c1.76.35,2.78,1.19,3,2.52a8.42,8.42,0,0,1-.39,4.37,28.45,28.45,0,0,1-2.12,4.77c-.89,1.59-1.59,2.92-2.13,4a250.83,250.83,0,0,1-13.52,25.05q-7.42,12.07-14.84,24c-.53.88-1.51,2.61-2.92,5.17s-2.87,5.43-4.37,8.61-3,6.46-4.38,9.81a57.46,57.46,0,0,0-3,9q-.93,4-.13,6t4.24.66a62.23,62.23,0,0,0,23.47-15.37,153.22,153.22,0,0,0,18.16-23.07A271.75,271.75,0,0,0,150.9,94.83Q157.79,80.91,165.21,69a16.21,16.21,0,0,0,1.46-5.3,43.36,43.36,0,0,0,.4-5.31,4.72,4.72,0,0,1,3.18-2.12l12.46-1.06a64.39,64.39,0,0,1,13,.27,18.79,18.79,0,0,1,.14,6,21.58,21.58,0,0,1-1.73,6.5,74,74,0,0,1-7.29,13.25q-4.38,6.38-7.82,12.46-6.9,12.74-13.92,24.79t-14.71,24q-6.9,10.61-13.13,22.27t-13,22.93a189,189,0,0,1-15,21.47A94.37,94.37,0,0,1,90.19,227a124.68,124.68,0,0,1-21.48,12.72,80.09,80.09,0,0,1-23.59,6.9q-5,.79-11.8,1.32a50.54,50.54,0,0,1-13.26-.66,35,35,0,0,1-11.8-4.37,18.18,18.18,0,0,1-7.68-9.55A18.86,18.86,0,0,1,1,222.75a14.65,14.65,0,0,1,6.5-8.22,11.76,11.76,0,0,1,9.94-.93,9.57,9.57,0,0,1,6.76,7.56,8.09,8.09,0,0,1-.66,5.17c-.8,1.67-1.55,3.31-2.26,4.9a10,10,0,0,0-.92,4.64q.14,2.25,3.31,4.37a12.22,12.22,0,0,0,5.57,2.39,27,27,0,0,0,6.49.27,32.39,32.39,0,0,0,6.5-1.2,44.22,44.22,0,0,0,5.57-2,99.69,99.69,0,0,0,22.4-16.17,146.5,146.5,0,0,0,18-20.94A233.8,233.8,0,0,0,102.91,179Q109.54,166.81,115.37,154.88Z"/><path class="cls-1" d="M218,67.92a136.84,136.84,0,0,1,17.89-9.41,56.09,56.09,0,0,1,19.75-4.64A35.93,35.93,0,0,1,273,57.05a23.36,23.36,0,0,1,11.8,11.66,33.86,33.86,0,0,1,1.85,11.67,49.75,49.75,0,0,1-1.45,12.33q-1.47,5.7-3.05,10.73a129.09,129.09,0,0,1-8.09,16,162.39,162.39,0,0,1-10.74,16A151.42,151.42,0,0,1,251.64,148,119.93,119.93,0,0,1,238,159.25a86.58,86.58,0,0,1-15.5,8.75,60.7,60.7,0,0,1-17.24,4.64,40.38,40.38,0,0,1-17.63-1.86,30.16,30.16,0,0,1-14.18-9.28,32.65,32.65,0,0,1-6.1-18.55,48,48,0,0,1,.66-7.56,69,69,0,0,1,1.73-7.82,102.1,102.1,0,0,1,18.69-33A139.37,139.37,0,0,1,217.7,67.92Zm-24.39,76.35c-.36,1.59-.67,3.1-.93,4.51a20.23,20.23,0,0,0-.4,2.65,11.67,11.67,0,0,0,1.46,6c1,1.69,3,3.23,6,4.64a13.09,13.09,0,0,0,9.54-1.06q5-2.39,9-4.77c-.17,0,0-.17.53-.53a2.6,2.6,0,0,1,1.33-.53,117,117,0,0,0,16.17-16.83A184.4,184.4,0,0,0,249.65,119a162.17,162.17,0,0,0,10.21-19.88,148.45,148.45,0,0,0,6.63-18.69,14.19,14.19,0,0,0,.79-3.18,29.18,29.18,0,0,0,.27-4,19.37,19.37,0,0,0-1.2-6.89,6.1,6.1,0,0,0-4.64-4,15.17,15.17,0,0,0-8.88,1.86A55.21,55.21,0,0,0,245,69a132.39,132.39,0,0,0-17.9,16.17A169,169,0,0,0,211.6,104.5a148.79,148.79,0,0,0-11.66,20.15,77.34,77.34,0,0,0-6.36,18.56Z"/><path class="cls-1" d="M331.44,137.91q-7.17,8-14.72,16.44a67.18,67.18,0,0,1-16.83,13.78,36.85,36.85,0,0,1-7.69,3.32,21.86,21.86,0,0,1-7.82.92,15.69,15.69,0,0,1-7.16-2.25,14.44,14.44,0,0,1-5.44-6.49,20.89,20.89,0,0,1-1.72-9,44.11,44.11,0,0,1,1.33-9.54,50.59,50.59,0,0,1,3.31-9.28c1.42-3,2.83-5.83,4.24-8.49q6.1-10.06,12.33-20.54T303.6,86Q306,82,308,77.86T311.82,69c.17-.71.35-1.63.53-2.79s.35-2.29.53-3.44a19.85,19.85,0,0,1,.79-3.32,4.69,4.69,0,0,1,1.59-2.38c.53,0,1.77,0,3.72-.13s4.19-.18,6.76-.27,5.12-.13,7.68-.13h6.23a1.89,1.89,0,0,1,1.06,1.85v2.12A23.78,23.78,0,0,1,339,70.44a58.54,58.54,0,0,1-4.37,9.14q-5.56,11.15-11.93,21.48-5.83,10.6-12.2,20.68T298,142.15a58.64,58.64,0,0,0-3.31,7.56q-1.74,4.64,1.19,7.55a4.79,4.79,0,0,0,4.37,1.46,16.21,16.21,0,0,0,5-1.72,20.9,20.9,0,0,0,4.51-3.18c1.32-1.24,2.43-2.3,3.31-3.19a104.6,104.6,0,0,0,15.38-17.49q6.89-9.81,13.25-19.09,6.9-10.08,12.86-20.68A187.75,187.75,0,0,0,365.1,71.63c.89-2.47,2-5.13,3.32-7.95a66.94,66.94,0,0,1,3.31-6.37c2.83-.17,6.41-.44,10.74-.79s8-.53,11-.53h5.31a28.92,28.92,0,0,1-.8,3.71,29.38,29.38,0,0,0-.93,3.58,10.26,10.26,0,0,1-1.19,3.31,158.54,158.54,0,0,1-11.14,20.55q-6.36,9.94-12.46,19.88t-11.4,20.28A104.3,104.3,0,0,0,352.65,149q-.81,6.63,2.51,7.56t7.82-2.78A138.36,138.36,0,0,0,384.46,131q9.54-12.74,18-26a3.87,3.87,0,0,1,3.44-.92c1.24.26,1.68,1.37,1.33,3.31a343,343,0,0,1-19.49,28.24,227.23,227.23,0,0,1-23.19,25.84,58.74,58.74,0,0,1-12.33,7.83,20.09,20.09,0,0,1-13.39,1.45q-5.57-1.32-7.82-5.17a17.86,17.86,0,0,1-2.39-8.74,43.92,43.92,0,0,1,.93-10.08C330.28,143.34,330.91,140.39,331.44,137.91Z"/><path class="cls-1" d="M484.14,103.71q.8,1.86-1.86,6.1-5.29,7.43-9.54,13.12t-8.22,10.74q-4,5-8.08,10.07t-9.68,11.4q-3.18,3.18-7.56,6.89a60,60,0,0,1-9.28,6.5,31.63,31.63,0,0,1-10.07,3.71,16.7,16.7,0,0,1-9.94-1.19q-6.37-3.18-8.22-8.62a26,26,0,0,1-1.06-11.8A46.87,46.87,0,0,1,404.07,138q2.65-6.22,5-10.74A68.5,68.5,0,0,1,417.33,115q4.77-5.7,9.94-11.14T437.48,93A134.24,134.24,0,0,0,447,81.44a20.19,20.19,0,0,0-6.89.13,11.36,11.36,0,0,1-6.63-.66,36.67,36.67,0,0,1-4.77-1.59q-1.86-.79-4.51,1.32-7.7,11.94-15.24,24.92t-16.17,25.32A207.14,207.14,0,0,1,374.11,154a100.34,100.34,0,0,1-22.8,18.16c-2.29.35-3.71-.22-4.24-1.72a5,5,0,0,1,.8-4.64,135,135,0,0,0,26.64-22.41,226.11,226.11,0,0,0,21.61-27.57,351,351,0,0,0,18.16-30.49q8.36-15.77,16.57-30.88a4.26,4.26,0,0,1,2.78-.14,10.82,10.82,0,0,1,2.92,1.33,31.05,31.05,0,0,1,2.78,2,13.66,13.66,0,0,0,2.39,1.59,22.72,22.72,0,0,0,6.89,2,25.73,25.73,0,0,0,6.9-.14,46,46,0,0,0,8.88-2.51A35.75,35.75,0,0,1,473,56.25c2.13-.17,3.49.13,4.11.93a3.3,3.3,0,0,1,.53,2.92,12.78,12.78,0,0,1-1.59,3.71c-.79,1.32-1.55,2.52-2.25,3.58q-9.29,11.67-17.36,23.86t-15.51,25.18c-1.42,2.13-2.83,4.34-4.25,6.63s-2.74,4.64-4,7a38.54,38.54,0,0,0-2.92,7.29,22.48,22.48,0,0,0-.8,7.69,21,21,0,0,0,1.07,6.1c.7,2.29,2.12,3.27,4.24,2.91q4.5-.79,9.94-5.7a122.49,122.49,0,0,0,11.27-11.8,181.86,181.86,0,0,0,11.26-14.84q5.44-8,10-14.32a32.08,32.08,0,0,1,3-4.11Q481.48,101.33,484.14,103.71Z"/><path class="cls-1" d="M594.69,67.92a137,137,0,0,1,17.9-9.41,56,56,0,0,1,19.75-4.64,35.91,35.91,0,0,1,17.36,3.18,23.36,23.36,0,0,1,11.8,11.66,33.62,33.62,0,0,1,1.86,11.67,49.74,49.74,0,0,1-1.46,12.33q-1.46,5.7-3,10.73a129.09,129.09,0,0,1-8.09,16,164.08,164.08,0,0,1-10.73,16A153.32,153.32,0,0,1,628.36,148a119.82,119.82,0,0,1-13.65,11.27A86.32,86.32,0,0,1,599.2,168,60.72,60.72,0,0,1,582,172.64a40.36,40.36,0,0,1-17.63-1.86,30.14,30.14,0,0,1-14.19-9.28,32.73,32.73,0,0,1-6.1-18.55,48,48,0,0,1,.67-7.56,69,69,0,0,1,1.72-7.82,102.29,102.29,0,0,1,18.69-33,139.42,139.42,0,0,1,29.3-26.64ZM570.3,144.27c-.36,1.59-.66,3.1-.93,4.51a21.38,21.38,0,0,0-.39,2.65,11.67,11.67,0,0,0,1.45,6c1,1.69,3,3.23,6,4.64a13.09,13.09,0,0,0,9.54-1.06q5-2.39,9-4.77c-.18,0,0-.17.53-.53a2.6,2.6,0,0,1,1.32-.53A116.43,116.43,0,0,0,613,138.31,182.91,182.91,0,0,0,626.37,119a162.17,162.17,0,0,0,10.21-19.88,145.35,145.35,0,0,0,6.63-18.69A13.67,13.67,0,0,0,644,77.2a27.67,27.67,0,0,0,.27-4,19.59,19.59,0,0,0-1.19-6.89,6.13,6.13,0,0,0-4.64-4,15.17,15.17,0,0,0-8.88,1.86A54.8,54.8,0,0,0,621.73,69a131.73,131.73,0,0,0-17.89,16.17,166.83,166.83,0,0,0-15.51,19.35,148.89,148.89,0,0,0-11.67,20.15,77.34,77.34,0,0,0-6.36,18.56Z"/><path class="cls-1" d="M766,70a53,53,0,0,1,0,18.29,70.77,70.77,0,0,1-5.84,18.29,100.27,100.27,0,0,1-11.66,21.08,159.59,159.59,0,0,1-14.58,17.63,77.25,77.25,0,0,1-13.79,11.8,85.45,85.45,0,0,1-16.44,8.62,71.81,71.81,0,0,1-18.16,5.17,28.69,28.69,0,0,1-18.16-3c-3-2-5.13-3.27-6.36-4s-2.92.36-5,3.18q-6.63,9.56-15.37,20.68a290.15,290.15,0,0,1-19.09,21.87,195.39,195.39,0,0,1-22.14,19.75,111.35,111.35,0,0,1-24.39,14.32,70.83,70.83,0,0,1-25.59,5.7q-13,.41-26-6.49a11.45,11.45,0,0,1-4.64-4.91,22.41,22.41,0,0,1-2.25-7.42,28.67,28.67,0,0,1,.13-8.22,16.19,16.19,0,0,1,2.79-7,11.4,11.4,0,0,1,6-4.24,13.58,13.58,0,0,1,7-.26,11.63,11.63,0,0,1,6,3.44,9.16,9.16,0,0,1,2.26,7.16,5.57,5.57,0,0,1-1.06,3.32,33.85,33.85,0,0,0-2,3,16,16,0,0,0-1.46,3.32,5.09,5.09,0,0,0,.26,3.58,7.26,7.26,0,0,0,4.64,4,29.44,29.44,0,0,0,6.23,1.33,34.48,34.48,0,0,0,17-2.65,64.35,64.35,0,0,0,15-9.15,103,103,0,0,0,13-12.59q6-6.9,11-13.26,6.11-7.7,11.93-16T626.77,170q5.31-8.22,10.47-16t9.94-16.57Q652,128.89,657.26,120t10.6-17.63q4.51-8.2,10.08-17a121,121,0,0,0,9.28-17.5,15.27,15.27,0,0,0,1.59-5.17c.17-1.68.44-3.76.79-6.23.36,0,1.5,0,3.45-.14s4.15-.21,6.63-.39,5-.31,7.69-.4,4.94-.13,6.89-.13a6.68,6.68,0,0,1,.93,2.12,10.65,10.65,0,0,1,.13,1.59,17.49,17.49,0,0,1-.53,7.29,59.49,59.49,0,0,1-2.39,7q6.63-5.58,13.92-11.41a40.93,40.93,0,0,1,16.31-7.95,19.83,19.83,0,0,1,14.84,3Q763.85,61.56,766,70Zm-62.31,79.27q1.33-1.59,6.5-8.62t11.53-16.57Q728,114.58,734,103.84a137.19,137.19,0,0,0,9.15-19.49q3.18-8.75,2-14.31t-9.42-4.77a19.62,19.62,0,0,0-7.55,2.65,45,45,0,0,0-6.9,5,69.11,69.11,0,0,0-6.23,6.23q-2.91,3.32-5.3,6a215.42,215.42,0,0,0-20.68,28.9q-4.5,7.42-9.41,15A127.13,127.13,0,0,0,671,144.54a21.45,21.45,0,0,0-1.85,11q.52,5.7,7.42,7.56a15.21,15.21,0,0,0,7.69.13,23.58,23.58,0,0,0,7.16-3.18,52.26,52.26,0,0,0,6.63-5.17C700.21,152.93,702.06,151.08,703.65,149.31Z"/><path class="cls-1" d="M819.51,62.35a133.39,133.39,0,0,1-8.88,19.22q-4.9,8.63-10.21,16.84c-1.41,2.3-2.87,4.59-4.37,6.89s-3,4.68-4.38,7.16q-3.7,6.63-7.95,13.25t-8,13a45.44,45.44,0,0,0-2.79,4.51,40.64,40.64,0,0,0-2.52,5.57,19.92,19.92,0,0,0-1.19,5.83,9.76,9.76,0,0,0,1.46,5.57,5.34,5.34,0,0,0,3.18,2.38q3.18,1.06,7.82-1.32a47.41,47.41,0,0,0,9.68-6.89A126.89,126.89,0,0,0,801.61,144q5.17-5.83,9.68-11.67a135.89,135.89,0,0,0,7.82-11.13,83.52,83.52,0,0,0,4.91-8.75h-.27l1.06-1.86,2.65-3.71c.89-1.23,1.5-1.06,1.86.53a3.81,3.81,0,0,1,.13,1.86,8.34,8.34,0,0,1-.93,2.91v-.26a50.39,50.39,0,0,0-4,6.49q-1.86,3.58-3.71,6.76-5.31,9.56-11.4,18.56a92.07,92.07,0,0,1-13.53,15.91,65.54,65.54,0,0,1-16.17,11.13A43.72,43.72,0,0,1,760.39,175a18.23,18.23,0,0,1-7.16-1.46,11.37,11.37,0,0,1-5.57-5.7A18.7,18.7,0,0,1,745,157.79a36.2,36.2,0,0,1,2.26-12.33q2.25-6.22,4.37-11,4.51-9.27,9.41-17.5t10.21-15.9Q775,95,778.68,88.6t7.43-12.73a23.62,23.62,0,0,0,2.51-5.7q.66-2.52,1.46-5.17a4.33,4.33,0,0,1,.13-1.06,4.23,4.23,0,0,0,.14-1.06,22.33,22.33,0,0,0,.92-2.92,5.07,5.07,0,0,1,1.2-2.38A21.9,21.9,0,0,1,800.16,56q4.77-.27,8-.27c1.59,0,3.4.05,5.44.13a23.42,23.42,0,0,0,5.7-.39V56l.26.53c.17.88.31,1.81.4,2.78A7.5,7.5,0,0,1,819.51,62.35ZM815.8,19.4a16.87,16.87,0,0,1,1.46-6.63,23.84,23.84,0,0,1,3.84-6.23A20.26,20.26,0,0,1,826.54,2a15.16,15.16,0,0,1,6.23-2,10.32,10.32,0,0,1,5.7.93,7.35,7.35,0,0,1,3.31,3.44,11.81,11.81,0,0,1,1.06,5,14.62,14.62,0,0,1-1.06,5.43A23.11,23.11,0,0,1,834.36,24q-5.31,4.11-10.34,4.11A7.29,7.29,0,0,1,818.85,26C817.34,24.62,816.33,22.41,815.8,19.4Z"/><path class="cls-1" d="M842.84,71.63A9.9,9.9,0,0,0,845,65.8q0-2.92.26-6.37a16.59,16.59,0,0,0,.14-3.31c-.09-.27.57-.4,2-.4,1.23,0,3.26-.08,6.09-.26s5.7-.31,8.62-.4,5.48-.17,7.69-.27,3.22-.13,3-.13A15,15,0,0,1,874,57.05a8.24,8.24,0,0,1,.66,3.18,25,25,0,0,1-2.52,7.69q-2,4-3.57,7.69,5.3-4.52,10.6-8.75a69.54,69.54,0,0,1,11.4-7.43,38.54,38.54,0,0,1,6.1-2.91,33.2,33.2,0,0,1,7.16-1.86,42.89,42.89,0,0,1,7.42-.4,19.71,19.71,0,0,1,6.89,1.46q7.15,3.45,7.82,10.34A40.57,40.57,0,0,1,925,79.58a60.6,60.6,0,0,1-9.27,17.9q-6.37,8.61-11.67,16.57-4.77,7.15-9.28,14.31t-8.75,14.85q-.79,1.59-2.38,4.38a25.15,25.15,0,0,0-2.39,5.56,7.34,7.34,0,0,0,0,4.78c.53,1.32,2.12,1.81,4.77,1.45a41,41,0,0,0,15-7,71.4,71.4,0,0,0,11.8-11.27,140.54,140.54,0,0,0,9.94-13.52q4.63-7.16,9.41-13.52a27.72,27.72,0,0,0,1.59-2.92,16.35,16.35,0,0,1,2.52-3.71,7.71,7.71,0,0,1,2.92-2.12c1-.35,2,.18,3,1.59a3.74,3.74,0,0,1,.4,2.92,12.25,12.25,0,0,1-1.46,3.31c-.71,1.15-1.42,2.21-2.12,3.18a20.06,20.06,0,0,1-1.86,2.26q-6.36,8.75-13.39,17.89a161.12,161.12,0,0,1-15,17,92.43,92.43,0,0,1-17.5,13.52,58.93,58.93,0,0,1-20.94,7.56,16.47,16.47,0,0,1-8.62-1.73,13.23,13.23,0,0,1-6-7,21,21,0,0,1-1.46-11.67A44.47,44.47,0,0,1,858.08,142a97.41,97.41,0,0,1,6.37-11.53c2.38-3.72,4.54-7.07,6.49-10.08q4.77-7.68,9.94-15.38t9.68-15.37c1.41-2,2.78-3.93,4.11-6a63.72,63.72,0,0,0,3.58-6.23,16.43,16.43,0,0,0,2-5.3,4.2,4.2,0,0,0-1.73-4.77,4.79,4.79,0,0,0-4.64-.27c-1.68.71-3.22,1.33-4.64,1.86a48.48,48.48,0,0,0-16,11.53q-7,7.56-13.12,14.72a57.64,57.64,0,0,0-4.77,6q-2.13,3-4.24,6.23-9.28,14.31-18.69,28.5t-18.69,28.5a30.51,30.51,0,0,1-1.73,3.45,15.13,15.13,0,0,1-2.25,3.18c-.89.7-2.3.93-4.24.66a14.7,14.7,0,0,0-4.25-.13H789.68c-2.56,0-4.15-.4-4.77-1.19s-.4-2.26.66-4.38,2.83-5.3,5.31-9.54q11.93-18.83,23.46-37.38t22.93-37.65q1.32-2.39,2.78-4.77T842.84,71.63Z"/><path class="cls-1" d="M980.17,62.35a133.39,133.39,0,0,1-8.88,19.22q-4.92,8.63-10.21,16.84c-1.42,2.3-2.87,4.59-4.37,6.89s-3,4.68-4.38,7.16q-3.72,6.63-8,13.25t-8,13a47.48,47.48,0,0,0-2.78,4.51,40.64,40.64,0,0,0-2.52,5.57,19.6,19.6,0,0,0-1.19,5.83,9.76,9.76,0,0,0,1.46,5.57,5.34,5.34,0,0,0,3.18,2.38c2.12.71,4.72.27,7.82-1.32a47.41,47.41,0,0,0,9.68-6.89A126.89,126.89,0,0,0,962.27,144q5.18-5.83,9.68-11.67t7.82-11.13a85.4,85.4,0,0,0,4.91-8.75h-.27l1.06-1.86,2.65-3.71c.88-1.23,1.5-1.06,1.86.53a3.81,3.81,0,0,1,.13,1.86,8.56,8.56,0,0,1-.93,2.91v-.26a50.39,50.39,0,0,0-4,6.49q-1.86,3.58-3.72,6.76-5.29,9.56-11.4,18.56a91.59,91.59,0,0,1-13.52,15.91,65.72,65.72,0,0,1-16.17,11.13A43.75,43.75,0,0,1,921.05,175a18.23,18.23,0,0,1-7.16-1.46,11.33,11.33,0,0,1-5.57-5.7,18.7,18.7,0,0,1-2.65-10.08,36.18,36.18,0,0,1,2.25-12.33q2.26-6.22,4.38-11,4.51-9.27,9.41-17.5t10.21-15.9q3.71-6.11,7.42-12.46t7.42-12.73a23.31,23.31,0,0,0,2.52-5.7q.66-2.52,1.46-5.17a4.33,4.33,0,0,1,.13-1.06,4.23,4.23,0,0,0,.14-1.06,22.33,22.33,0,0,0,.92-2.92,5.07,5.07,0,0,1,1.2-2.38A21.83,21.83,0,0,1,960.81,56q4.79-.27,8-.27c1.59,0,3.4.05,5.43.13a23.38,23.38,0,0,0,5.7-.39V56l.27.53c.17.88.31,1.81.4,2.78A7.68,7.68,0,0,1,980.17,62.35ZM976.46,19.4a16.87,16.87,0,0,1,1.46-6.63,23.57,23.57,0,0,1,3.84-6.23A20.38,20.38,0,0,1,987.19,2a15.16,15.16,0,0,1,6.23-2,10.28,10.28,0,0,1,5.7.93,7.38,7.38,0,0,1,3.32,3.44,11.81,11.81,0,0,1,1.06,5,14.62,14.62,0,0,1-1.06,5.43A23.11,23.11,0,0,1,995,24q-5.31,4.11-10.34,4.11A7.29,7.29,0,0,1,979.51,26C978,24.62,977,22.41,976.46,19.4Z"/><path class="cls-1" d="M1008.8,67.92a136.84,136.84,0,0,1,17.89-9.41,56.09,56.09,0,0,1,19.75-4.64,35.93,35.93,0,0,1,17.37,3.18,23.36,23.36,0,0,1,11.8,11.66,33.86,33.86,0,0,1,1.85,11.67A49.75,49.75,0,0,1,1076,92.71q-1.47,5.7-3,10.73a129.09,129.09,0,0,1-8.09,16,162.39,162.39,0,0,1-10.74,16A151.42,151.42,0,0,1,1042.47,148a119.93,119.93,0,0,1-13.66,11.27,86.58,86.58,0,0,1-15.5,8.75,60.79,60.79,0,0,1-17.24,4.64,40.38,40.38,0,0,1-17.63-1.86,30.16,30.16,0,0,1-14.18-9.28,32.65,32.65,0,0,1-6.1-18.55,48,48,0,0,1,.66-7.56,69,69,0,0,1,1.73-7.82,102.1,102.1,0,0,1,18.69-33,139.37,139.37,0,0,1,29.29-26.64Zm-24.39,76.35c-.36,1.59-.67,3.1-.93,4.51a20.23,20.23,0,0,0-.4,2.65,11.67,11.67,0,0,0,1.46,6c1,1.69,3,3.23,6,4.64a13.09,13.09,0,0,0,9.54-1.06q5-2.39,9-4.77c-.17,0,0-.17.53-.53a2.6,2.6,0,0,1,1.33-.53,117,117,0,0,0,16.17-16.83A184.4,184.4,0,0,0,1040.48,119a162.17,162.17,0,0,0,10.21-19.88,146.74,146.74,0,0,0,6.62-18.69,13.64,13.64,0,0,0,.8-3.18,29.18,29.18,0,0,0,.27-4,19.37,19.37,0,0,0-1.2-6.89,6.1,6.1,0,0,0-4.64-4,15.17,15.17,0,0,0-8.88,1.86,55.21,55.21,0,0,0-7.82,4.77,132.39,132.39,0,0,0-17.9,16.17,167.79,167.79,0,0,0-15.5,19.35,147.84,147.84,0,0,0-11.67,20.15,77.34,77.34,0,0,0-6.36,18.56Z"/><path class="cls-1" d="M1099.2,71.63a9.9,9.9,0,0,0,2.12-5.83q0-2.92.27-6.37a16.16,16.16,0,0,0,.13-3.31c-.09-.27.57-.4,2-.4,1.23,0,3.27-.08,6.1-.26s5.7-.31,8.61-.4,5.48-.17,7.69-.27,3.23-.13,3.05-.13a15,15,0,0,1,1.19,2.39,8.25,8.25,0,0,1,.67,3.18,25.52,25.52,0,0,1-2.52,7.69q-2,4-3.58,7.69,5.3-4.52,10.6-8.75a70.4,70.4,0,0,1,11.4-7.43,39,39,0,0,1,6.1-2.91,33.36,33.36,0,0,1,7.16-1.86,43,43,0,0,1,7.42-.4,19.72,19.72,0,0,1,6.9,1.46q7.15,3.45,7.82,10.34a40.84,40.84,0,0,1-.93,13.52,60.88,60.88,0,0,1-9.28,17.9q-6.36,8.61-11.67,16.57-4.77,7.15-9.27,14.31t-8.75,14.85q-.8,1.59-2.39,4.38a25.1,25.1,0,0,0-2.38,5.56,7.21,7.21,0,0,0,0,4.78c.53,1.32,2.12,1.81,4.77,1.45a41.13,41.13,0,0,0,15-7,71,71,0,0,0,11.79-11.27,140.62,140.62,0,0,0,10-13.52q4.63-7.16,9.41-13.52a32.13,32.13,0,0,0,1.59-2.92,15.73,15.73,0,0,1,2.52-3.71,7.69,7.69,0,0,1,2.91-2.12c1-.35,2,.18,3,1.59a3.74,3.74,0,0,1,.4,2.92,12,12,0,0,1-1.46,3.31c-.71,1.15-1.41,2.21-2.12,3.18a20.06,20.06,0,0,1-1.86,2.26q-6.36,8.75-13.38,17.89a163.42,163.42,0,0,1-15,17,93.07,93.07,0,0,1-17.5,13.52,59,59,0,0,1-21,7.56,16.43,16.43,0,0,1-8.61-1.73,13.24,13.24,0,0,1-6-7,21,21,0,0,1-1.46-11.67,44.15,44.15,0,0,1,3.72-12.06,95.92,95.92,0,0,1,6.36-11.53c2.39-3.72,4.55-7.07,6.5-10.08q4.77-7.68,9.94-15.38t9.67-15.37c1.42-2,2.79-3.93,4.11-6a61.75,61.75,0,0,0,3.58-6.23,16.2,16.2,0,0,0,2-5.3,4.2,4.2,0,0,0-1.72-4.77,4.79,4.79,0,0,0-4.64-.27q-2.52,1.06-4.64,1.86a48.38,48.38,0,0,0-16,11.53q-7,7.56-13.12,14.72a59.13,59.13,0,0,0-4.78,6c-1.41,2-2.83,4.11-4.24,6.23q-9.29,14.31-18.69,28.5T1070,164.42a31.92,31.92,0,0,1-1.72,3.45,15.12,15.12,0,0,1-2.26,3.18c-.88.7-2.3.93-4.24.66a14.63,14.63,0,0,0-4.24-.13h-11.53c-2.56,0-4.15-.4-4.78-1.19s-.39-2.26.67-4.38,2.83-5.3,5.3-9.54q11.92-18.83,23.46-37.38t22.94-37.65q1.32-2.39,2.78-4.77T1099.2,71.63Z"/></g></g></svg>